<?xml version="1.0" encoding="utf-8"?>
<!-- Generator: Adobe Illustrator 27.5.0, SVG Export Plug-In . SVG Version: 6.00 Build 0)  -->
<svg version="1.1" xmlns="http://www.w3.org/2000/svg" xmlns:xlink="http://www.w3.org/1999/xlink" x="0px" y="0px"
	 viewBox="0 0 500 500" style="enable-background:new 0 0 500 500;" xml:space="preserve">
<g id="BACKGROUND">
	<rect style="fill:#FFFFFF;" width="500" height="500"/>
</g>
<g id="OBJECTS">
	
		<ellipse transform="matrix(0.8271 -0.5621 0.5621 0.8271 -98.2533 182.3479)" style="fill:#FFDEF2;" cx="247.253" cy="250.87" rx="224.77" ry="198.214"/>
	<g>
		<g>
			<g>
				<path style="fill:#FFB769;" d="M441.937,278.207v10.062l-5.747,2.212v33.931l5.747-2.451v12.867l-173.852,89.438L69.17,374.958
					c-15.727-3.898-26.772-18.016-26.772-34.219v-5.114c0-16.282,11.15-30.446,26.977-34.269l209.233-50.542L441.937,278.207z"/>
				<path style="fill:#FFDEF2;" d="M263.763,406.124L69.176,360.421c0,0-19.389-5.54-15.927-26.314
					c3.462-20.774,24.929-18.004,24.929-18.004l185.584,41.549L436.19,290.48v33.931L263.763,406.124z"/>
				<path style="fill:#4F2649;" d="M372.528,354.852c-0.102,0-0.199-0.057-0.245-0.155c-0.065-0.136-0.006-0.298,0.128-0.362
					l63.507-30.096V290.48c0-0.15,0.122-0.271,0.271-0.271c0.15,0,0.271,0.122,0.271,0.271v33.931c0,0.105-0.06,0.201-0.155,0.245
					l-63.661,30.169C372.607,354.843,372.568,354.852,372.528,354.852z"/>
				<path style="fill:#4F2649;" d="M263.337,390.945c-0.02,0-0.039-0.002-0.058-0.006l-33.557-7.442
					c-0.146-0.033-0.239-0.177-0.206-0.323c0.032-0.147,0.176-0.237,0.324-0.207l33.475,7.423l33.479-13.221
					c0.14-0.055,0.297,0.014,0.352,0.153c0.055,0.139-0.013,0.297-0.153,0.352l-33.557,13.252
					C263.404,390.939,263.37,390.945,263.337,390.945z"/>
				<path style="fill:#4F2649;" d="M263.337,377.693c-0.02,0-0.039-0.002-0.058-0.006l-23.477-5.205
					c-0.146-0.033-0.238-0.177-0.206-0.323c0.033-0.146,0.178-0.236,0.324-0.207l23.395,5.187l12.078-4.77
					c0.142-0.055,0.296,0.013,0.352,0.153c0.055,0.139-0.013,0.297-0.153,0.352l-12.156,4.8
					C263.404,377.687,263.37,377.693,263.337,377.693z"/>
				<path style="fill:#4F2649;" d="M199.35,356.594c-0.02,0-0.039-0.002-0.059-0.006L80.774,330.497
					c-0.146-0.032-0.239-0.177-0.207-0.323c0.032-0.146,0.176-0.239,0.323-0.207l118.517,26.091
					c0.146,0.032,0.239,0.177,0.207,0.323C199.587,356.508,199.475,356.594,199.35,356.594z"/>
				<path style="fill:#4F2649;" d="M190.947,375.09c-0.02,0-0.04-0.002-0.06-0.006l-73.41-16.726
					c-0.146-0.034-0.237-0.179-0.204-0.326c0.033-0.146,0.175-0.234,0.325-0.205l73.41,16.726c0.146,0.034,0.238,0.179,0.204,0.326
					C191.183,375.005,191.071,375.09,190.947,375.09z"/>
				<path style="fill:#4F2649;" d="M336.416,343.549c-0.107,0-0.209-0.065-0.252-0.17c-0.055-0.14,0.012-0.298,0.151-0.354
					L421,308.973c0.139-0.054,0.297,0.012,0.354,0.151c0.055,0.14-0.012,0.298-0.151,0.354l-84.686,34.052
					C336.484,343.542,336.45,343.549,336.416,343.549z"/>
				<path style="fill:#4F2649;" d="M263.763,357.922c-0.052,0-0.105-0.015-0.15-0.044c-0.073-0.049-0.119-0.13-0.122-0.218
					l-0.426-13.145c-0.004-0.149,0.112-0.275,0.263-0.28c0.147-0.006,0.275,0.112,0.28,0.263l0.414,12.761l138.086-53.793
					c0.141-0.05,0.297,0.015,0.352,0.155c0.054,0.14-0.015,0.297-0.155,0.352l-138.444,53.932
					C263.83,357.915,263.796,357.922,263.763,357.922z"/>
				<path style="fill:#4F2649;" d="M268.086,424.537c-0.15,0-0.272-0.122-0.272-0.271v-16.844l-15.074-3.607
					c-0.145-0.035-0.235-0.181-0.2-0.328c0.035-0.145,0.187-0.235,0.328-0.2l15.282,3.657c0.122,0.03,0.208,0.139,0.208,0.264
					v17.058C268.357,424.415,268.235,424.537,268.086,424.537z"/>
				<path style="fill:none;stroke:#4F2649;stroke-width:0.5;stroke-linecap:round;stroke-linejoin:round;stroke-miterlimit:10;" d="
					M441.937,321.96"/>
				<path style="fill:#4F2649;" d="M441.482,322.073c-0.015,0-0.03-0.001-0.045-0.004l-5.292-0.888
					c-0.148-0.024-0.248-0.164-0.223-0.312c0.024-0.147,0.164-0.253,0.312-0.223l5.292,0.888c0.148,0.024,0.248,0.164,0.223,0.312
					C441.727,321.979,441.612,322.073,441.482,322.073z"/>
				<path style="fill:#4F2649;" d="M370.023,303.99c-0.111,0-0.216-0.069-0.256-0.18c-0.051-0.142,0.023-0.297,0.164-0.347
					l71.914-25.512c0.144-0.052,0.296,0.023,0.347,0.164c0.051,0.142-0.023,0.297-0.164,0.347l-71.914,25.512
					C370.083,303.985,370.052,303.99,370.023,303.99z"/>
				<polygon style="fill:#4F2649;" points="334.147,330.232 264.233,365.823 179.827,338.859 263.763,357.651 				"/>
			</g>
			<g>
				<polygon style="fill:#6E89EA;" points="421.134,255.025 421.134,213.827 432.079,210.646 432.079,203.451 229.562,180.204 
					45.321,229.898 45.321,296.337 228.137,337.54 432.079,261.534 432.079,255.884 				"/>
				<polygon style="fill:#FFDEF2;" points="421.134,213.827 235.768,273.194 235.768,326.349 421.134,259.633 				"/>
				<path style="fill:#4F2649;" d="M228.138,337.812c-0.055,0-0.109-0.017-0.155-0.049c-0.073-0.051-0.117-0.134-0.117-0.223V265.49
					l-110.553-21.333c-0.147-0.027-0.243-0.171-0.215-0.318c0.029-0.147,0.173-0.249,0.318-0.214L228.189,265
					c0.128,0.024,0.22,0.136,0.22,0.266v71.883l106.687-39.76c0.138-0.054,0.296,0.019,0.349,0.16
					c0.052,0.14-0.019,0.297-0.16,0.349l-107.052,39.897C228.202,337.807,228.169,337.812,228.138,337.812z"/>
				<path style="fill:#4F2649;" d="M421.134,245.333c-0.15,0-0.271-0.122-0.271-0.271v-30.863l-92.328,29.57
					c-0.142,0.044-0.295-0.032-0.341-0.176c-0.046-0.143,0.033-0.296,0.176-0.341l92.682-29.684
					c0.081-0.027,0.174-0.011,0.243,0.039c0.07,0.051,0.111,0.133,0.111,0.219v31.235
					C421.405,245.212,421.283,245.333,421.134,245.333z"/>
				<path style="fill:#4F2649;" d="M247.428,281.197c-0.114,0-0.22-0.073-0.258-0.188c-0.047-0.142,0.031-0.296,0.174-0.341
					l151.856-49.37c0.142-0.047,0.296,0.032,0.342,0.174c0.047,0.143-0.031,0.295-0.174,0.342l-151.856,49.369
					C247.484,281.193,247.456,281.197,247.428,281.197z"/>
				<path style="fill:#4F2649;" d="M323.357,270.359c-0.113,0-0.218-0.071-0.258-0.184c-0.048-0.142,0.029-0.296,0.171-0.345
					l82.676-27.912c0.143-0.046,0.296,0.029,0.345,0.17c0.048,0.143-0.029,0.296-0.171,0.344l-82.676,27.913
					C323.415,270.355,323.385,270.359,323.357,270.359z"/>
				<path style="fill:#4F2649;" d="M252.861,306.574c-0.112,0-0.217-0.07-0.257-0.182c-0.049-0.142,0.025-0.296,0.167-0.346
					l89.452-31.043c0.142-0.047,0.297,0.025,0.346,0.168c0.049,0.142-0.025,0.296-0.168,0.346l-89.452,31.043
					C252.921,306.569,252.891,306.574,252.861,306.574z"/>
				<path style="fill:#4F2649;" d="M100.906,300.72c-0.019,0-0.039-0.002-0.058-0.006l-44.512-9.697
					c-0.125-0.026-0.214-0.138-0.214-0.265v-48.038c0-0.082,0.037-0.158,0.1-0.21c0.063-0.052,0.146-0.07,0.225-0.056l44.512,8.96
					c0.127,0.025,0.218,0.137,0.218,0.266v48.775c0,0.082-0.037,0.16-0.101,0.211C101.027,300.699,100.968,300.72,100.906,300.72z
					 M56.666,290.533l43.969,9.578v-48.215l-43.969-8.851V290.533z"/>
				<path style="fill:#4F2649;" d="M159.655,313.76c-0.02,0-0.039-0.002-0.058-0.006l-44.512-9.812
					c-0.125-0.027-0.213-0.138-0.213-0.265v-49.193c0-0.082,0.036-0.158,0.099-0.21c0.063-0.051,0.145-0.071,0.225-0.056
					l44.513,8.752c0.127,0.024,0.219,0.137,0.219,0.266v50.252c0,0.083-0.037,0.16-0.101,0.212
					C159.776,313.739,159.716,313.76,159.655,313.76z M115.414,303.459l43.969,9.692v-49.69l-43.969-8.646V303.459z"/>
				<path style="fill:#4F2649;" d="M219.67,327.011c-0.02,0-0.04-0.002-0.06-0.006l-44.512-10.083
					c-0.124-0.029-0.212-0.138-0.212-0.265v-50.265c0-0.082,0.037-0.158,0.099-0.21c0.063-0.051,0.146-0.071,0.225-0.056
					l44.512,8.858c0.127,0.026,0.218,0.137,0.218,0.266v51.49c0,0.083-0.038,0.16-0.102,0.212
					C219.791,326.991,219.731,327.011,219.67,327.011z M175.43,316.441l43.969,9.96v-50.928l-43.969-8.75V316.441z"/>
				<path style="fill:#4F2649;" d="M235.768,262.859c-0.117,0-0.225-0.075-0.26-0.193c-0.044-0.144,0.038-0.295,0.181-0.338
					l110.021-33.143c0.151-0.044,0.296,0.039,0.338,0.181c0.044,0.144-0.038,0.295-0.181,0.338l-110.021,33.143
					C235.82,262.856,235.794,262.859,235.768,262.859z"/>
				<path style="fill:#4F2649;" d="M121.423,313.76c-0.02,0-0.04-0.002-0.06-0.006l-76.102-17.152
					c-0.124-0.029-0.212-0.138-0.212-0.265V275.26c0-0.15,0.121-0.271,0.271-0.271c0.15,0,0.271,0.122,0.271,0.271v20.859
					l75.89,17.104c0.146,0.033,0.238,0.178,0.205,0.324C121.659,313.674,121.547,313.76,121.423,313.76z"/>
			</g>
			<g>
				<polygon style="fill:#A475DB;" points="465.887,182.704 465.887,162.159 476.833,158.978 476.833,151.783 274.315,128.536 
					90.075,178.231 90.075,224.016 272.891,265.22 476.833,189.214 476.833,183.564 				"/>
				<polygon style="fill:#FFDEF2;" points="465.887,162.159 280.522,221.526 280.522,254.029 465.887,187.312 				"/>
				<path style="fill:#4F2649;" d="M264.423,253.371c-0.02,0-0.04-0.002-0.06-0.006l-44.511-10.082
					c-0.124-0.029-0.212-0.138-0.212-0.265v-26.712c0-0.081,0.037-0.158,0.099-0.21c0.064-0.051,0.147-0.072,0.225-0.056
					l44.512,8.858c0.127,0.025,0.218,0.137,0.218,0.266V253.1c0,0.083-0.037,0.16-0.102,0.212
					C264.544,253.351,264.485,253.371,264.423,253.371z M220.183,242.8l43.969,9.96v-27.374l-43.969-8.749V242.8z"/>
				<path style="fill:#4F2649;" d="M142.545,227.743c-0.02,0-0.04-0.002-0.06-0.007l-44.512-10.082
					c-0.124-0.028-0.212-0.138-0.212-0.265v-26.712c0-0.081,0.036-0.158,0.099-0.21c0.063-0.051,0.147-0.073,0.225-0.056
					l44.512,8.858c0.127,0.025,0.218,0.137,0.218,0.266v27.937c0,0.083-0.038,0.161-0.102,0.212
					C142.666,227.722,142.606,227.743,142.545,227.743z M98.305,217.172l43.969,9.959v-27.374l-43.969-8.75V217.172z"/>
				<path style="fill:#4F2649;" d="M390.234,214.813c-0.111,0-0.215-0.069-0.256-0.18c-0.051-0.141,0.022-0.296,0.163-0.347
					l75.474-27.165v-16.674c0-0.15,0.122-0.271,0.271-0.271s0.271,0.121,0.271,0.271v16.864c0,0.115-0.072,0.217-0.179,0.256
					l-75.653,27.229C390.296,214.808,390.265,214.813,390.234,214.813z"/>
				<path style="fill:#4F2649;" d="M334.971,195.176c-0.117,0-0.224-0.075-0.26-0.193c-0.043-0.144,0.037-0.295,0.181-0.339
					l141.862-43.122c0.137-0.041,0.295,0.037,0.338,0.181c0.044,0.144-0.037,0.295-0.181,0.339l-141.862,43.122
					C335.024,195.173,334.997,195.176,334.971,195.176z"/>
				<path style="fill:#4F2649;" d="M272.89,213.857c-0.017,0-0.034-0.002-0.052-0.005L90.023,178.497
					c-0.147-0.029-0.243-0.171-0.215-0.318c0.029-0.148,0.17-0.244,0.318-0.215l182.816,35.355c0.146,0.029,0.243,0.171,0.214,0.318
					C273.132,213.767,273.018,213.857,272.89,213.857z"/>
				<path style="fill:#4F2649;" d="M206.369,213.381c-0.019,0-0.037-0.002-0.056-0.006l-52.281-10.796
					c-0.146-0.03-0.241-0.174-0.211-0.321c0.031-0.147,0.175-0.243,0.321-0.21l52.281,10.795c0.146,0.03,0.241,0.174,0.21,0.321
					C206.608,213.293,206.495,213.381,206.369,213.381z"/>
				<path style="fill:#4F2649;" d="M206.369,226.897c-0.019,0-0.037-0.002-0.056-0.006l-52.281-10.796
					c-0.146-0.03-0.241-0.174-0.211-0.321c0.031-0.147,0.175-0.244,0.321-0.21l52.281,10.796c0.146,0.03,0.241,0.174,0.21,0.321
					C206.608,226.809,206.495,226.897,206.369,226.897z"/>
				<path style="fill:#4F2649;" d="M206.369,239.895c-0.019,0-0.037-0.002-0.056-0.006l-52.281-10.796
					c-0.146-0.03-0.241-0.174-0.211-0.321c0.031-0.147,0.175-0.244,0.321-0.21l52.281,10.796c0.146,0.03,0.241,0.174,0.21,0.321
					C206.608,239.807,206.495,239.895,206.369,239.895z"/>
				<path style="fill:#4F2649;" d="M351.474,215.271c-0.115,0-0.221-0.073-0.258-0.187c-0.047-0.143,0.031-0.296,0.174-0.342
					l107.202-34.94c0.142-0.044,0.296,0.032,0.342,0.174c0.047,0.143-0.031,0.296-0.174,0.342l-107.203,34.94
					C351.53,215.267,351.502,215.271,351.474,215.271z"/>
				<path style="fill:#4F2649;" d="M298.034,239.972c-0.113,0-0.219-0.072-0.258-0.185c-0.048-0.142,0.029-0.296,0.171-0.344
					l30.864-10.395c0.142-0.046,0.297,0.029,0.345,0.171c0.048,0.142-0.029,0.296-0.171,0.344l-30.864,10.395
					C298.093,239.968,298.063,239.972,298.034,239.972z"/>
				<polygon style="fill:#4F2649;" points="331.032,243.551 272.891,265.22 246.391,259.387 272.891,272.647 				"/>
				<path style="fill:#4F2649;" d="M154.088,238.715c-0.02,0-0.04-0.002-0.06-0.007l-64.013-14.428
					c-0.123-0.028-0.211-0.138-0.211-0.265v-13.192c0-0.15,0.121-0.271,0.271-0.271c0.15,0,0.271,0.121,0.271,0.271v12.975
					l63.802,14.38c0.146,0.033,0.238,0.178,0.205,0.324C154.324,238.63,154.213,238.715,154.088,238.715z"/>
			</g>
			<g>
				<polygon style="fill:#F98AB7;" points="433.912,174.081 229.708,237.428 65.364,164.563 64.68,152.751 70.086,154.695 
					68.283,123.547 62.89,121.822 62.355,112.586 211.521,88.352 433.912,118.357 				"/>
				<polygon style="fill:#FFDEF2;" points="230.137,176.046 68.283,123.547 70.086,154.695 232.712,220.544 422.755,162.89 
					422.755,130.47 				"/>
				<path style="fill:#4F2649;" d="M100.906,167.446c-0.034,0-0.068-0.006-0.102-0.02l-30.82-12.479
					c-0.098-0.04-0.163-0.132-0.169-0.236l-1.803-31.148c-0.008-0.15,0.105-0.278,0.255-0.287c0.169-0.007,0.278,0.106,0.287,0.255
					l1.793,30.977l30.661,12.415c0.139,0.057,0.206,0.215,0.15,0.354C101.115,167.382,101.013,167.446,100.906,167.446z"/>
				<path style="fill:#4F2649;" d="M232.283,196.057c-0.029,0-0.057-0.005-0.085-0.014l-31.508-10.382
					c-0.143-0.047-0.22-0.2-0.173-0.342c0.047-0.143,0.199-0.222,0.343-0.173l31.429,10.356l30.329-8.592
					c0.152-0.039,0.295,0.044,0.335,0.187c0.041,0.145-0.042,0.295-0.187,0.336l-30.409,8.614
					C232.332,196.054,232.307,196.057,232.283,196.057z"/>
				<path style="fill:#4F2649;" d="M231.578,208.611c-0.029,0-0.057-0.005-0.085-0.014l-11.414-3.761
					c-0.143-0.047-0.22-0.2-0.173-0.342c0.047-0.143,0.199-0.221,0.342-0.173l11.335,3.735l12.272-3.476
					c0.148-0.039,0.295,0.044,0.336,0.187c0.04,0.145-0.043,0.295-0.187,0.336l-12.352,3.499
					C231.628,208.608,231.603,208.611,231.578,208.611z"/>
				<path style="fill:#4F2649;" d="M277.328,195.599c-0.119,0-0.228-0.078-0.261-0.198c-0.041-0.144,0.043-0.294,0.188-0.335
					l107.409-30.248c0.144-0.038,0.295,0.043,0.334,0.188c0.041,0.144-0.043,0.294-0.188,0.335l-107.409,30.248
					C277.377,195.596,277.352,195.599,277.328,195.599z"/>
				<path style="fill:#4F2649;" d="M347.429,161.682c-0.118,0-0.226-0.077-0.261-0.196c-0.041-0.144,0.041-0.294,0.186-0.336
					l66.5-19.255c0.146-0.043,0.294,0.042,0.336,0.186c0.041,0.144-0.041,0.294-0.186,0.336l-66.5,19.255
					C347.479,161.679,347.453,161.682,347.429,161.682z"/>
				<path style="fill:#4F2649;" d="M125.648,154.527c-0.029,0-0.058-0.005-0.086-0.014l-42.518-14.303
					c-0.142-0.048-0.218-0.201-0.171-0.343c0.048-0.142,0.203-0.216,0.344-0.171l42.518,14.303c0.142,0.048,0.218,0.201,0.171,0.344
					C125.867,154.455,125.761,154.527,125.648,154.527z"/>
				<path style="fill:#4F2649;" d="M230.137,176.318c-0.028,0-0.056-0.004-0.084-0.013l-129.954-42.153
					c-0.143-0.046-0.221-0.199-0.174-0.342c0.046-0.142,0.197-0.22,0.342-0.174l129.59,42.034l-0.242-9.522
					c-0.003-0.129,0.085-0.242,0.21-0.271l26.975-6.253c0.154-0.032,0.293,0.058,0.326,0.203c0.034,0.146-0.056,0.292-0.203,0.326
					l-26.759,6.203l0.246,9.685c0.002,0.088-0.039,0.172-0.109,0.224C230.252,176.299,230.195,176.318,230.137,176.318z"/>
				<path style="fill:none;stroke:#4F2649;stroke-width:0.5;stroke-linecap:round;stroke-linejoin:round;stroke-miterlimit:10;" d="
					M64.68,152.751"/>
				<path style="fill:#4F2649;" d="M65.09,152.852c-0.124,0-0.236-0.085-0.264-0.211c-0.033-0.146,0.058-0.292,0.204-0.325
					l4.81-1.096c0.15-0.036,0.292,0.058,0.325,0.204c0.033,0.146-0.058,0.292-0.204,0.325l-4.81,1.096
					C65.13,152.85,65.11,152.852,65.09,152.852z"/>
				<path style="fill:#4F2649;" d="M182.728,147.995c-0.025,0-0.051-0.004-0.076-0.011l-31.242-9.16
					c-0.144-0.042-0.226-0.193-0.184-0.337c0.042-0.144,0.19-0.226,0.337-0.184l31.242,9.16c0.144,0.042,0.226,0.193,0.184,0.337
					C182.953,147.918,182.845,147.995,182.728,147.995z"/>
				<path style="fill:#4F2649;" d="M129.727,132.455c-0.025,0-0.05-0.003-0.076-0.011L62.28,112.846
					c-0.144-0.042-0.227-0.193-0.185-0.337c0.041-0.144,0.191-0.229,0.337-0.185l67.372,19.598c0.144,0.042,0.227,0.193,0.185,0.337
					C129.954,132.378,129.845,132.455,129.727,132.455z"/>
				<path style="fill:#4F2649;" d="M270.585,225.018c-0.115,0-0.223-0.075-0.26-0.191c-0.043-0.143,0.036-0.295,0.179-0.34
					l110.094-34.152c0.144-0.045,0.295,0.036,0.34,0.179c0.043,0.143-0.036,0.295-0.179,0.34l-110.094,34.152
					C270.639,225.014,270.612,225.018,270.585,225.018z"/>
				<path style="fill:#4F2649;" d="M338.302,141.136c-0.123,0-0.234-0.084-0.264-0.209c-0.035-0.146,0.056-0.292,0.201-0.326
					l95.61-22.507c0.153-0.036,0.293,0.057,0.327,0.202c0.035,0.146-0.056,0.292-0.201,0.326l-95.61,22.508
					C338.344,141.134,338.322,141.136,338.302,141.136z"/>
				<path style="fill:#4F2649;" d="M190.678,189.175c-0.03,0-0.06-0.005-0.09-0.015l-53.279-18.779
					c-0.141-0.05-0.216-0.205-0.166-0.346c0.049-0.142,0.204-0.215,0.346-0.166l53.279,18.779c0.141,0.05,0.216,0.205,0.166,0.346
					C190.895,189.105,190.79,189.175,190.678,189.175z"/>
				<path style="fill:#4F2649;" d="M229.708,237.699c-0.148,0-0.269-0.118-0.271-0.267l-0.297-16.2
					c-0.002-0.124,0.079-0.233,0.199-0.266l12.757-3.552c0.146-0.044,0.293,0.043,0.334,0.189c0.04,0.144-0.044,0.294-0.189,0.334
					l-12.555,3.495l0.294,15.99c0.003,0.149-0.117,0.273-0.267,0.276C229.711,237.699,229.71,237.699,229.708,237.699z"/>
				<polygon style="fill:#4F2649;" points="142.545,199.535 229.368,243.837 280.522,221.526 229.703,237.17 				"/>
				<path style="fill:#4F2649;" d="M188.781,134.429c-0.022,0-0.043-0.003-0.065-0.008l-87.875-21.572
					c-0.125-0.031-0.211-0.145-0.207-0.274c0.005-0.129,0.1-0.236,0.227-0.257l111.943-18.472c0.026-0.006,0.055-0.005,0.082-0.001
					l99.018,13.93c0.13,0.019,0.229,0.128,0.233,0.259c0.004,0.132-0.086,0.248-0.215,0.275l-123.085,26.113
					C188.819,134.427,188.8,134.429,188.781,134.429z M102.257,112.637l86.528,21.241l121.518-25.781l-97.451-13.71L102.257,112.637
					z"/>
			</g>
		</g>
		<g>
			<path style="fill:#97C4BC;" d="M361.829,396.42c0,0,1.263-40.903,55.922-49.811C417.751,346.609,454.519,393.93,361.829,396.42z"
				/>
			<path style="fill:#4F2649;" d="M352.797,399.966c-0.12,0-0.229-0.079-0.262-0.2c-0.039-0.144,0.046-0.294,0.191-0.333
				c5.68-1.549,10.18-4.223,10.225-4.251c44.617-29.21,53.472-47.5,53.557-47.681c0.064-0.135,0.225-0.193,0.361-0.132
				c0.136,0.063,0.195,0.224,0.132,0.361c-0.084,0.182-8.969,18.589-53.761,47.912c-0.054,0.033-4.619,2.746-10.371,4.315
				C352.845,399.962,352.821,399.966,352.797,399.966z"/>
			<path style="fill:#4F2649;" d="M403.857,389.377c-15.646,0-28.608-1.907-28.738-1.926c-0.149-0.022-0.25-0.16-0.228-0.309
				c0.022-0.148,0.15-0.251,0.309-0.228c0.128,0.019,13.054,1.919,28.657,1.919c0.039,0,0.076,0,0.116,0l0,0
				c0.15,0,0.271,0.122,0.271,0.271s-0.121,0.272-0.271,0.272C403.935,389.377,403.896,389.377,403.857,389.377z"/>
			<path style="fill:#4F2649;" d="M390.321,375.919c-0.139,0-0.257-0.105-0.27-0.246c-0.014-0.15,0.095-0.282,0.245-0.296
				c0.189-0.018,18.997-1.797,32.736-4.129c0.153-0.032,0.287,0.074,0.313,0.222c0.026,0.148-0.074,0.289-0.222,0.313
				c-13.759,2.337-32.588,4.117-32.776,4.135C390.338,375.919,390.329,375.919,390.321,375.919z"/>
			<path style="fill:#4F2649;" d="M405.872,361.745c-0.123,0-0.235-0.085-0.264-0.209c-0.035-0.146,0.056-0.293,0.202-0.327
				c0.1-0.023,9.946-2.341,15.974-4.268c0.143-0.043,0.296,0.033,0.341,0.176c0.046,0.143-0.033,0.296-0.176,0.341
				c-6.049,1.933-15.916,4.255-16.014,4.279C405.913,361.743,405.892,361.745,405.872,361.745z"/>
			<path style="fill:#4F2649;" d="M398.034,369.302c-0.138,0-0.256-0.104-0.27-0.244c-0.963-9.314-0.213-16.29-0.205-16.359
				c0.016-0.148,0.148-0.257,0.299-0.24c0.15,0.016,0.257,0.15,0.24,0.299c-0.007,0.069-0.751,6.991,0.207,16.245
				c0.015,0.148-0.093,0.282-0.243,0.298C398.052,369.302,398.042,369.302,398.034,369.302z"/>
			<path style="fill:#4F2649;" d="M385.226,379.979c-0.106,0-0.207-0.063-0.25-0.167c-3.711-8.83-2.921-18.269-2.913-18.363
				c0.013-0.148,0.126-0.269,0.295-0.246c0.15,0.014,0.26,0.145,0.246,0.295c-0.009,0.092-0.785,9.402,2.872,18.104
				c0.058,0.138-0.006,0.297-0.145,0.355C385.297,379.973,385.261,379.979,385.226,379.979z"/>
			<path style="fill:#4F2649;" d="M371.021,390.357c-0.118,0-0.226-0.076-0.261-0.195c-1.436-4.873-1.35-14.126-1.346-14.517
				c0.002-0.148,0.123-0.268,0.271-0.268c0.001,0,0.002,0,0.003,0c0.15,0.002,0.27,0.124,0.268,0.275
				c-0.001,0.095-0.089,9.563,1.324,14.358c0.042,0.143-0.04,0.295-0.185,0.337C371.071,390.353,371.046,390.357,371.021,390.357z"
				/>
		</g>
		<g>
			<g>
				<path style="fill:#4F2649;" d="M130.162,396.629c-5.998,0-28.198-0.359-50.716-5.267c-15.421-3.361-27.976-8.167-37.316-14.284
					c-11.709-7.67-18.374-17.432-19.81-29.018c-0.018-0.148,0.087-0.284,0.236-0.302c0.141-0.015,0.284,0.087,0.303,0.236
					c1.415,11.417,7.998,21.049,19.566,28.626c9.283,6.081,21.775,10.861,37.129,14.209c26.17,5.705,51.917,5.253,52.173,5.246
					c0.002,0,0.004,0,0.005,0c0.147,0,0.268,0.118,0.271,0.266c0.003,0.15-0.116,0.274-0.266,0.277
					C131.701,396.619,131.152,396.629,130.162,396.629z"/>
				<path style="fill:#FF5C5E;" d="M185.128,442.959c0,0-80.89,0.285-72.039-49.114c8.85-49.399,83.377-55.457,83.377-55.457
					s18.208,6.411,14.035,49.985C208.014,414.334,185.128,442.959,185.128,442.959z"/>
				<path style="fill:#4F2649;" d="M180.823,435.004c-0.028,0-0.055-0.004-0.082-0.013c-0.094-0.03-0.164-0.107-0.184-0.203
					c-3.837-18.433-6.668-45.337,1.641-68.83c4.979-14.078,11.713-20.334,11.781-20.396c0.111-0.102,0.283-0.092,0.383,0.017
					c0.101,0.111,0.093,0.283-0.018,0.384c-0.066,0.06-6.718,6.251-11.649,20.217c-4.531,12.835-8.49,35.03-1.708,68.009
					c1.6-1.615,8.364-8.832,14.007-20.749c5.899-12.459,11.741-32.745,6.143-58.713c-1.633,0.368-12.223,4.716-13.71,55.07
					c-0.004,0.149-0.126,0.292-0.279,0.263c-0.15-0.004-0.268-0.129-0.264-0.28c1.623-54.941,13.888-55.629,14.463-55.629
					c0.001,0,0.002,0,0.004,0c0.127,0.001,0.236,0.089,0.263,0.213c5.724,26.248-0.179,46.751-6.139,59.33
					c-6.46,13.633-14.387,21.161-14.466,21.237C180.957,434.978,180.89,435.004,180.823,435.004z"/>
				<path style="fill:#4F2649;" d="M61.455,386.257c0,0-17.003-21.518,34.116-36.387c0,0,1.449,34.384-30.858,37.017L61.455,386.257
					z"/>
				<path style="fill:#4F2649;" d="M71.555,389.128c0,0,21.547-10.75,25.291,35.733C96.846,424.862,68.096,417.302,71.555,389.128
					L71.555,389.128z"/>
			</g>
			<g>
				<path style="fill:#F98AB7;" d="M110.991,417.013c0,0-15.306-18.221-4.983-22.939c12.439-5.685,10.703,20.41,10.703,20.41
					S115.343,417.022,110.991,417.013z"/>
				<path style="fill:#F98AB7;" d="M112.598,428.066c0,0,0.78,26.56,13.632,22.133c12.853-4.427-7.895-24.661-7.895-24.661
					S115.72,424.358,112.598,428.066z"/>
				<path style="fill:#F98AB7;" d="M116.711,414.483c0,0-0.956-24.737,10.371-23.077c0,0,9.101,0.991-3.643,22.134
					C123.439,413.541,118.527,415.525,116.711,414.483z"/>
				<path style="fill:#F98AB7;" d="M129.033,415.703c0,0-5.119,1.778-6.452-1.084c0,0,13.506-24.22,20.425-16.419
					C151.251,407.495,129.033,415.703,129.033,415.703z"/>
				<path style="fill:#4F2649;" d="M130.21,418.973"/>
				<path style="fill:#F98AB7;" d="M110.991,417.013c0,0-13.527-20.22-20.955-9.315c-6.31,9.263,17.052,12.387,17.052,12.387
					S110.699,419.198,110.991,417.013z"/>
				<path style="fill:#F98AB7;" d="M126.608,415.957c0,0,17.994-10.634,22.312,1.519c3.586,10.093-21.269,5.173-21.269,5.173
					S125.903,420.513,126.608,415.957z"/>
				<path style="fill:#F98AB7;" d="M107.087,420.084c0,0-21.571-5.581-21.565,4.323c0.007,9.931,18.911,1.943,18.911,1.943
					S103.184,423.156,107.087,420.084z"/>
				<path style="fill:#F98AB7;" d="M104.434,426.351c0,0-19.065,6.021-15.998,15.378c2.807,8.563,15.278-2.693,18.338-10.889
					C106.774,430.84,104.35,431.451,104.434,426.351z"/>
				<path style="fill:#F98AB7;" d="M106.513,431.657c0,0-11.602,19.381-1.964,20.59c10.767,1.349,8-22.289,8-22.289
					S108.164,431.836,106.513,431.657z"/>
				<path style="fill:#F98AB7;" d="M127.651,422.65c0,0,16.654,3.28,13.718,11.167c-3.691,9.916-9.817,6.428-21.879-6.947
					C119.49,426.871,124.269,423.405,127.651,422.65z"/>
				<path style="fill:#4F2649;" d="M101.365,443.569c-0.026,0-0.054-0.004-0.081-0.013c-0.143-0.045-0.223-0.196-0.178-0.339
					c1.955-6.251,4.251-9.923,4.274-9.96c0.082-0.126,0.249-0.163,0.374-0.084c0.127,0.079,0.165,0.247,0.085,0.374
					c-0.023,0.035-2.284,3.654-4.215,9.831C101.588,443.495,101.481,443.569,101.365,443.569z"/>
				<path style="fill:#4F2649;" d="M89.44,436.004c-0.062,0-0.124-0.021-0.175-0.065c-0.115-0.096-0.129-0.267-0.032-0.382
					c5.445-6.44,11.256-8.086,11.314-8.102c0.148-0.039,0.294,0.047,0.333,0.19c0.039,0.145-0.046,0.294-0.19,0.334
					c-0.056,0.016-5.714,1.627-11.043,7.928C89.594,435.971,89.517,436.004,89.44,436.004z"/>
				<path style="fill:#4F2649;" d="M136.915,426.22c-0.04,0-0.081-0.009-0.119-0.027c-4.825-2.357-8.263-3.051-8.298-3.058
					c-0.147-0.029-0.243-0.172-0.214-0.318c0.029-0.147,0.167-0.244,0.319-0.214c0.035,0.006,3.537,0.712,8.431,3.103
					c0.135,0.066,0.19,0.228,0.125,0.363C137.112,426.164,137.015,426.22,136.915,426.22z"/>
				<path style="fill:#4F2649;" d="M130.002,415.38c-0.087,0-0.172-0.041-0.224-0.119c-0.084-0.123-0.052-0.293,0.071-0.376
					c5.068-3.462,9.111-3.45,9.284-3.46c0.15,0.001,0.27,0.124,0.269,0.274c-0.002,0.15-0.123,0.269-0.272,0.269
					c-0.002,0-0.003,0-0.004,0c-0.093,0-4.091,0.032-8.971,3.365C130.108,415.365,130.055,415.38,130.002,415.38z"/>
				<path style="fill:#4F2649;" d="M116.744,413.918c-0.002,0-0.004,0-0.006,0c-0.15-0.003-0.268-0.128-0.265-0.278
					c0.361-15.501-3.956-18.812-3.999-18.844c-0.121-0.087-0.149-0.257-0.062-0.378c0.087-0.119,0.255-0.151,0.376-0.064
					c0.188,0.133,4.597,3.434,4.228,19.298C117.012,413.8,116.891,413.918,116.744,413.918z"/>
				<path style="fill:#4F2649;" d="M110.112,416.049c-0.084,0-0.167-0.039-0.22-0.112c-3.959-5.47-7.086-7.735-7.117-7.758
					c-0.121-0.087-0.15-0.257-0.063-0.379c0.087-0.122,0.256-0.153,0.379-0.063c0.13,0.092,3.224,2.33,7.242,7.88
					c0.088,0.121,0.06,0.291-0.061,0.379C110.222,416.032,110.167,416.049,110.112,416.049z"/>
				<path style="fill:#4F2649;" d="M123.97,412.862c-0.048,0-0.096-0.013-0.14-0.038c-0.129-0.077-0.171-0.244-0.093-0.372
					c0.206-0.345,5.082-8.463,8.724-11.663c0.112-0.1,0.284-0.089,0.383,0.024c0.099,0.112,0.087,0.284-0.025,0.383
					c-3.578,3.145-8.567,11.451-8.617,11.534C124.152,412.815,124.063,412.862,123.97,412.862z"/>
				<path style="fill:#4F2649;" d="M118.001,448.132c-0.083,0-0.165-0.038-0.218-0.11c-0.042-0.057-4.251-5.851-5.028-14.991
					c-0.013-0.15,0.098-0.281,0.248-0.294c0.134-0.019,0.28,0.098,0.293,0.247c0.764,8.98,4.883,14.659,4.924,14.716
					c0.089,0.121,0.063,0.29-0.057,0.38C118.113,448.115,118.057,448.132,118.001,448.132z"/>
				<path style="fill:#4F2649;" d="M135.368,439.823c-2.655,0-4.837-2.053-4.94-2.152c-0.108-0.104-0.112-0.275-0.008-0.384
					c0.103-0.107,0.276-0.11,0.383-0.009c0.027,0.024,2.697,2.534,5.538,1.893c1.963-0.445,3.569-2.279,4.775-5.451
					c0.054-0.14,0.212-0.213,0.35-0.157c0.14,0.053,0.211,0.21,0.158,0.35c-1.275,3.354-3.013,5.302-5.165,5.789
					C136.089,439.786,135.724,439.823,135.368,439.823z"/>
				<path style="fill:#FFDEF2;" d="M128.589,417.874c1.85,5.034-2.897,10.024-9.672,13.126c-6.775,3.103-13.014,3.143-14.864-1.891
					c-1.85-5.034,2.143-11.63,8.919-14.732C119.747,411.275,126.739,412.84,128.589,417.874z"/>
				<path style="fill:#4F2649;" d="M104.5,419.787c-0.016,0-0.031-0.001-0.047-0.004c-0.035-0.006-3.598-0.622-6.295-0.807
					c-0.149-0.009-0.262-0.139-0.252-0.288c0.011-0.151,0.146-0.274,0.29-0.252c2.726,0.186,6.315,0.807,6.352,0.813
					c0.147,0.025,0.246,0.167,0.22,0.314C104.743,419.694,104.629,419.787,104.5,419.787z"/>
			</g>
		</g>
		<g>
			<g>
				<path style="fill:#B55757;" d="M291.601,113.268c0,0-3.779-38.403-55.768-43.323
					C235.833,69.945,204.237,116.795,291.601,113.268z"/>
				<path style="fill:#4F2649;" d="M300.306,116.048c-0.018,0-0.036-0.002-0.054-0.005c-5.513-1.112-9.982-3.377-10.027-3.399
					c-22.99-12.934-36.335-23.564-43.484-30.205c-7.767-7.215-10.052-11.308-10.145-11.479c-0.072-0.132-0.024-0.296,0.108-0.368
					c0.13-0.072,0.296-0.025,0.368,0.108c0.023,0.041,2.357,4.213,10.078,11.379c7.127,6.614,20.429,17.203,43.332,30.088
					c0.034,0.017,4.44,2.248,9.877,3.345c0.146,0.03,0.242,0.173,0.212,0.32C300.545,115.959,300.433,116.048,300.306,116.048z"/>
				<path style="fill:#4F2649;" d="M251.486,109.326c-0.142,0-0.261-0.11-0.27-0.253c-0.011-0.15,0.103-0.279,0.252-0.289
					c14.729-0.982,26.828-3.6,26.948-3.627c0.153-0.03,0.292,0.061,0.323,0.207c0.032,0.146-0.06,0.291-0.207,0.323
					c-0.121,0.027-12.257,2.654-27.028,3.639C251.498,109.326,251.491,109.326,251.486,109.326z"/>
				<path style="fill:#4F2649;" d="M263.479,95.801c-0.002,0-0.004,0-0.008,0c-0.178-0.005-18.006-0.489-31.101-1.816
					c-0.149-0.015-0.258-0.148-0.242-0.297c0.015-0.15,0.147-0.26,0.297-0.242c13.075,1.325,30.882,1.808,31.06,1.813
					c0.15,0.004,0.268,0.129,0.264,0.279C263.746,95.684,263.625,95.801,263.479,95.801z"/>
				<path style="fill:#4F2649;" d="M247.951,83.45c-0.015,0-0.03-0.001-0.045-0.004c-0.094-0.015-9.526-1.576-15.34-3.012
					c-0.145-0.036-0.234-0.183-0.198-0.329c0.037-0.145,0.181-0.235,0.329-0.198c5.793,1.431,15.204,2.988,15.298,3.004
					c0.147,0.024,0.248,0.164,0.224,0.312C248.197,83.355,248.081,83.45,247.951,83.45z"/>
				<path style="fill:#4F2649;" d="M255.803,90.063c-0.003,0-0.006,0-0.01,0c-0.15-0.005-0.267-0.132-0.262-0.281
					c0.315-8.764-0.822-15.228-0.833-15.293c-0.027-0.147,0.072-0.288,0.219-0.315c0.143-0.024,0.288,0.072,0.315,0.22
					c0.012,0.065,1.158,6.582,0.842,15.407C256.069,89.948,255.948,90.063,255.803,90.063z"/>
				<path style="fill:#4F2649;" d="M268.529,99.297c-0.03,0-0.059-0.005-0.088-0.015c-0.142-0.049-0.217-0.203-0.169-0.345
					c2.892-8.42,1.569-17.12,1.556-17.207c-0.023-0.148,0.077-0.287,0.226-0.311c0.159-0.019,0.287,0.078,0.311,0.226
					c0.014,0.089,1.356,8.922-1.579,17.468C268.747,99.226,268.641,99.297,268.529,99.297z"/>
				<path style="fill:#4F2649;" d="M282.552,108.162c-0.019,0-0.039-0.002-0.059-0.006c-0.146-0.033-0.239-0.178-0.206-0.324
					c1.024-4.599,0.342-13.498,0.336-13.588c-0.012-0.149,0.1-0.28,0.249-0.292c0.173-0.017,0.28,0.1,0.292,0.249
					c0.029,0.368,0.696,9.07-0.347,13.748C282.789,108.076,282.677,108.162,282.552,108.162z"/>
			</g>
			<g>
				<path style="fill:#FFB769;" d="M324.707,78.778c0,0-15.029-40.256,13.822-35.841c28.851,4.415-0.762,38.663-0.762,38.663
					S332.579,83.913,324.707,78.778z"/>
				<path style="fill:#FFB769;" d="M315.809,97.743c0,0-30.616,41.668-2.616,49.948c28,8.279,15.704-47.104,15.704-47.104
					S325.422,95.687,315.809,97.743z"/>
				<path style="fill:#FFB769;" d="M337.767,81.601c0,0,26.048-35.931,44.783-20.044c0,0,14.068,8.834-31.595,26.501
					C350.955,88.058,339.943,85.345,337.767,81.601z"/>
				<path style="fill:#FFB769;" d="M358.773,97.977c0,0-8.463-3.931-7.818-9.919c0,0,49.973-20.567,54.166-0.38
					C410.117,111.735,358.773,97.977,358.773,97.977z"/>
				<path style="fill:#4F2649;" d="M357.411,104.413"/>
				<path style="fill:#FFB769;" d="M324.707,78.778c0,0-8.852-43.806-33.223-33.721c-21.463,8.882,22.875,33.875,22.875,33.875
					S321.845,81.811,324.707,78.778z"/>
				<path style="fill:#FFB769;" d="M358.773,97.977c0,0,39.278,2.282,34.112,26.132c-4.291,19.808-44.036-17.027-44.036-17.027
					S352.629,104.185,358.773,97.977z"/>
				<path style="fill:#FFB769;" d="M314.359,78.932c0,0-42.176-25.487-48.214-10.022c-6.038,15.465,32.392,15.306,32.392,15.306
					S304.01,79.086,314.359,78.932z"/>
				<path style="fill:#FFB769;" d="M298.536,84.216c0,0-38.133-5.874-43.162,9.932c-3.987,12.532,30.707,11.159,45.004,2.099
					C300.378,96.248,292.937,91.995,298.536,84.216z"/>
				<path style="fill:#FFB769;" d="M300.953,96.132c0,0-41.714,16.29-25.553,29.493c18.052,14.749,38.299-25.018,38.299-25.018
					S303.752,98.35,300.953,96.132z"/>
				<path style="fill:#FFB769;" d="M348.848,107.082c0,0,29.167,20.697,16.488,30.91c-15.496,12.483-28.223,0.857-35.772-33.989
					C329.564,104.003,341.918,104.271,348.848,107.082z"/>
				<path style="fill:#FFDEF2;" d="M358.847,101.488c-1.733,8.498-15.727,5.277-33.079,1.739
					c-17.352-3.538-31.489-6.054-29.757-14.552c1.733-8.498,17.203-12.518,34.555-8.98
					C347.918,83.234,360.58,92.991,358.847,101.488z"/>
				<path style="fill:#4F2649;" d="M279.196,108.329c-0.084,0-0.168-0.039-0.221-0.113c-0.087-0.121-0.059-0.291,0.062-0.379
					c10.193-7.338,18.244-10.298,18.325-10.327c0.143-0.051,0.296,0.022,0.348,0.162c0.051,0.141-0.022,0.297-0.163,0.348
					c-0.079,0.029-8.065,2.967-18.191,10.258C279.306,108.313,279.251,108.329,279.196,108.329z"/>
				<path style="fill:#4F2649;" d="M266.371,85.467c-0.124,0-0.235-0.085-0.265-0.211c-0.033-0.146,0.058-0.292,0.205-0.325
					c19.268-4.416,32.169-1.011,32.296-0.977c0.145,0.039,0.23,0.189,0.191,0.334c-0.039,0.144-0.19,0.231-0.333,0.19
					c-0.127-0.034-12.904-3.401-32.033,0.982C266.412,85.465,266.391,85.467,266.371,85.467z"/>
				<path style="fill:#4F2649;" d="M365.123,123.143c-0.087,0-0.174-0.042-0.226-0.121c-6.227-9.329-14.703-14.261-14.788-14.31
					c-0.13-0.075-0.175-0.241-0.101-0.371c0.074-0.13,0.242-0.174,0.37-0.1c0.086,0.049,8.668,5.04,14.97,14.48
					c0.083,0.125,0.05,0.293-0.075,0.376C365.227,123.129,365.175,123.143,365.123,123.143z"/>
				<path style="fill:#4F2649;" d="M381.336,103.937c-0.052,0-0.104-0.014-0.15-0.045c-0.073-0.048-7.436-4.819-20.035-5.422
					c-0.15-0.007-0.265-0.134-0.259-0.284c0.007-0.15,0.142-0.27,0.284-0.258c12.759,0.61,20.235,5.462,20.309,5.511
					c0.125,0.083,0.159,0.251,0.077,0.376C381.509,103.894,381.424,103.937,381.336,103.937z"/>
				<path style="fill:#4F2649;" d="M338.72,80.618c-0.059,0-0.119-0.019-0.169-0.059c-0.118-0.093-0.137-0.264-0.043-0.382
					c7.018-8.829,14.757-21.099,11.765-29.423c-1.895-5.273-7.28-6.471-7.335-6.482c-0.146-0.031-0.241-0.176-0.209-0.322
					c0.031-0.146,0.169-0.239,0.321-0.209c0.057,0.012,5.736,1.276,7.733,6.83c2.47,6.871-1.517,16.946-11.852,29.945
					C338.879,80.582,338.8,80.618,338.72,80.618z"/>
				<path style="fill:#4F2649;" d="M323.227,72.599c-0.112,0-0.218-0.071-0.257-0.183c-2.862-8.363-5.419-13.1-5.445-13.146
					c-0.071-0.132-0.023-0.297,0.109-0.368c0.131-0.07,0.295-0.023,0.368,0.109c0.025,0.047,2.603,4.82,5.481,13.23
					c0.049,0.142-0.026,0.296-0.169,0.345C323.286,72.594,323.256,72.599,323.227,72.599z"/>
				<path style="fill:#4F2649;" d="M352.932,87.486c-0.108,0-0.211-0.065-0.252-0.173c-0.055-0.14,0.014-0.297,0.154-0.352
					c0.18-0.071,18.204-7.077,28.171-7.734c0.173-0.007,0.28,0.104,0.288,0.253c0.011,0.15-0.103,0.279-0.252,0.289
					c-9.884,0.651-27.83,7.627-28.01,7.698C352.999,87.48,352.965,87.486,352.932,87.486z"/>
				<path style="fill:#4F2649;" d="M302.387,126.361c-0.02,0-0.04-0.002-0.06-0.007c-0.146-0.033-0.238-0.179-0.205-0.325
					c0.029-0.122,2.861-12.285,9.514-22.994c0.077-0.127,0.246-0.166,0.373-0.087c0.127,0.079,0.167,0.247,0.087,0.374
					c-6.604,10.63-9.417,22.707-9.445,22.828C302.623,126.276,302.511,126.361,302.387,126.361z"/>
				<path style="fill:#4F2649;" d="M353.795,143.156c-1.481,0-2.93-0.263-4.343-0.79c-4.756-1.774-8.228-6.267-10.303-9.724
					c-2.24-3.73-3.381-7.093-3.393-7.127c-0.048-0.142,0.029-0.296,0.171-0.344s0.297,0.029,0.345,0.171
					c0.043,0.132,4.535,13.219,13.372,16.515c3.747,1.398,7.776,0.849,11.974-1.624c0.129-0.075,0.297-0.033,0.372,0.096
					c0.075,0.129,0.033,0.296-0.096,0.372C359.116,142.336,356.407,143.156,353.795,143.156z"/>
			</g>
			<g>
				<path style="fill:#B55757;" d="M356.984,143.889c0,0-24.585,18.997-57.743-10.519
					C299.241,133.37,308.138,87.736,356.984,143.889z"/>
				<path style="fill:#4F2649;" d="M355.75,143.866c-0.029,0-0.058-0.005-0.087-0.014c-39.93-13.493-55.113-10.125-55.26-10.088
					c-0.274,0.038-6.095,0.762-9.537-2.405c-0.11-0.102-0.118-0.274-0.016-0.384c0.101-0.11,0.273-0.116,0.383-0.016
					c3.258,2.998,9.013,2.28,9.071,2.271c0.121-0.029,15.453-3.437,55.533,10.107c0.142,0.048,0.218,0.202,0.171,0.344
					C355.969,143.794,355.864,143.866,355.75,143.866z"/>
				<path style="fill:#4F2649;" d="M344.763,140.378c-0.091,0-0.18-0.046-0.231-0.129c-0.055-0.09-5.577-9.048-13.585-18.729
					c-0.095-0.116-0.079-0.286,0.036-0.382c0.116-0.095,0.286-0.081,0.382,0.036c8.034,9.712,13.575,18.7,13.63,18.79
					c0.078,0.128,0.038,0.295-0.089,0.373C344.861,140.365,344.812,140.378,344.763,140.378z"/>
				<path style="fill:#4F2649;" d="M330.26,136.574c-0.07,0-0.14-0.027-0.193-0.081c-0.107-0.108-10.764-10.885-19.152-18.259
					c-0.112-0.099-0.124-0.271-0.024-0.383c0.098-0.113,0.269-0.123,0.383-0.025c8.403,7.386,19.073,18.177,19.18,18.285
					c0.105,0.107,0.104,0.279-0.002,0.384C330.397,136.548,330.328,136.574,330.26,136.574z"/>
				<path style="fill:#4F2649;" d="M314.014,133.805c-0.058,0-0.118-0.019-0.166-0.057c-0.065-0.05-6.454-5.022-10.663-7.82
					c-0.124-0.083-0.158-0.251-0.075-0.376c0.082-0.125,0.251-0.16,0.376-0.076c4.225,2.809,10.631,7.793,10.695,7.843
					c0.119,0.092,0.14,0.263,0.048,0.381C314.174,133.769,314.094,133.805,314.014,133.805z"/>
				<path style="fill:#4F2649;" d="M313.009,143.011c-0.089,0-0.176-0.044-0.228-0.124c-0.082-0.126-0.046-0.294,0.081-0.375
					c0.045-0.029,4.468-2.912,9.387-7.971c0.107-0.107,0.279-0.11,0.384-0.005c0.108,0.104,0.11,0.276,0.006,0.384
					c-4.966,5.106-9.438,8.02-9.483,8.049C313.111,142.997,313.06,143.011,313.009,143.011z"/>
				<path style="fill:#4F2649;" d="M326.048,148.37c-0.087,0-0.172-0.042-0.225-0.119c-0.084-0.124-0.052-0.293,0.072-0.378
					c0.058-0.04,5.888-4.05,9.102-10.503c0.068-0.135,0.23-0.189,0.364-0.122c0.135,0.067,0.189,0.23,0.122,0.364
					c-3.279,6.584-9.223,10.67-9.282,10.711C326.154,148.355,326.101,148.37,326.048,148.37z"/>
				<path style="fill:#4F2649;" d="M340.81,149.343c-0.079,0-0.158-0.035-0.211-0.101c-0.094-0.117-0.076-0.287,0.04-0.382
					c0.056-0.045,5.634-4.561,7.711-7.744c0.083-0.124,0.251-0.16,0.375-0.079c0.125,0.082,0.161,0.25,0.078,0.376
					c-2.124,3.255-7.592,7.683-7.823,7.87C340.93,149.324,340.87,149.343,340.81,149.343z"/>
			</g>
			<g>
				<path style="fill:#97C4BC;" d="M289.364,124.42c0,0,17.908-26.347,1.839-29.913c-19.363-4.297-10.724,28.044-10.724,28.044
					S283.057,125.424,289.364,124.42z"/>
				<path style="fill:#97C4BC;" d="M289.627,138.654c0,0,5.103,33.499-14.565,30.873c-19.668-2.626,5.656-32.738,5.656-32.738
					S284.233,134.713,289.627,138.654z"/>
				<path style="fill:#97C4BC;" d="M280.478,122.551c0,0-4.419-31.251-20.448-26.587c0,0-12.958,3.317,10.476,26.938
					C270.506,122.901,278.09,124.271,280.478,122.551z"/>
				<path style="fill:#97C4BC;" d="M262.905,126.888c0,0,7.837,1.064,9.097-2.83c0,0-25.261-27.307-33.458-15.945
					C228.775,121.654,262.905,126.888,262.905,126.888z"/>
				<path style="fill:#4F2649;" d="M261.967,131.259"/>
				<path style="fill:#97C4BC;" d="M289.364,124.42c0,0,14.861-28.448,28.187-16.461c11.32,10.183-21.809,19.426-21.809,19.426
					S290.299,127.095,289.364,124.42z"/>
				<path style="fill:#97C4BC;" d="M266.48,126.655c0,0-28.578-9.24-31.984,6.99c-2.829,13.48,32.042,1.644,32.042,1.644
					S268.571,132.21,266.48,126.655z"/>
				<path style="fill:#97C4BC;" d="M295.742,127.384c0,0,29.957-11.917,32.271,0.51c2.321,12.461-26.954,6.747-26.954,6.747
					S302.12,130.349,295.742,127.384z"/>
				<path style="fill:#97C4BC;" d="M301.059,134.642c0,0,29.046,3.209,26.797,15.647c-2.059,11.382-22.776,0.102-29.135-9.482
					C298.721,140.807,302.377,141.021,301.059,134.642z"/>
				<path style="fill:#97C4BC;" d="M299.291,141.772c0,0,21.365,21.671,7.678,25.383c-15.289,4.146-16.827-26.14-16.827-26.14
					S296.94,142.373,299.291,141.772z"/>
				<path style="fill:#97C4BC;" d="M266.539,135.289c0,0-23.369,7.91-17.263,17.136c7.678,11.598,15.738,5.827,30.081-13.7
					C279.358,138.725,271.618,135.466,266.539,135.289z"/>
				<path style="fill:#4F2649;" d="M309.484,155.475c-0.093,0-0.185-0.048-0.234-0.135c-4.255-7.318-8.388-11.348-8.43-11.388
					c-0.108-0.104-0.11-0.276-0.006-0.384c0.105-0.108,0.277-0.11,0.384-0.006c0.041,0.04,4.226,4.117,8.521,11.506
					c0.075,0.129,0.032,0.296-0.098,0.371C309.577,155.463,309.531,155.475,309.484,155.475z"/>
				<path style="fill:#4F2649;" d="M324.993,143.266c-0.055,0-0.111-0.017-0.16-0.052c-9.248-6.726-17.858-7.45-17.944-7.456
					c-0.15-0.012-0.262-0.142-0.25-0.292c0.011-0.149,0.14-0.26,0.291-0.25c0.088,0.007,8.852,0.743,18.224,7.559
					c0.121,0.088,0.147,0.258,0.059,0.379C325.159,143.227,325.077,143.266,324.993,143.266z"/>
				<path style="fill:#4F2649;" d="M253.886,141.809c-0.09,0-0.178-0.045-0.23-0.127c-0.08-0.127-0.041-0.295,0.086-0.374
					c6.517-4.104,11.409-5.781,11.458-5.798c0.144-0.048,0.296,0.028,0.344,0.17c0.049,0.142-0.028,0.296-0.17,0.344
					c-0.048,0.016-4.885,1.675-11.344,5.742C253.985,141.796,253.935,141.809,253.886,141.809z"/>
				<path style="fill:#4F2649;" d="M261.361,126.635c-0.033,0-0.067-0.006-0.099-0.019c-7.973-3.116-13.832-2.197-13.888-2.186
					c-0.145,0.028-0.288-0.076-0.313-0.223c-0.024-0.148,0.076-0.288,0.224-0.312c0.059-0.01,6.065-0.953,14.175,2.216
					c0.14,0.055,0.209,0.212,0.154,0.352C261.572,126.569,261.469,126.635,261.361,126.635z"/>
				<path style="fill:#4F2649;" d="M280.234,121.78c-0.125,0-0.237-0.087-0.265-0.214c-4.254-19.797,1.333-24.916,1.573-25.124
					c0.116-0.098,0.285-0.084,0.382,0.027c0.099,0.112,0.087,0.284-0.024,0.382c-0.015,0.013-1.41,1.277-2.278,4.918
					c-0.804,3.374-1.304,9.527,0.878,19.682c0.032,0.147-0.061,0.291-0.208,0.323C280.272,121.778,280.253,121.78,280.234,121.78z"
					/>
				<path style="fill:#4F2649;" d="M290.348,122.942c-0.046,0-0.092-0.012-0.135-0.036c-0.13-0.075-0.175-0.241-0.101-0.371
					c4.514-7.867,8.586-11.479,8.626-11.514c0.113-0.099,0.285-0.088,0.383,0.025c0.1,0.112,0.088,0.284-0.024,0.383
					c-0.04,0.035-4.049,3.596-8.513,11.377C290.533,122.893,290.441,122.942,290.348,122.942z"/>
				<path style="fill:#4F2649;" d="M269.513,122.101c-0.07,0-0.14-0.027-0.193-0.081c-0.092-0.093-9.283-9.387-15.225-12.524
					c-0.133-0.07-0.182-0.234-0.112-0.367c0.071-0.134,0.234-0.181,0.367-0.114c6.014,3.177,15.264,12.53,15.356,12.624
					c0.106,0.107,0.104,0.278-0.002,0.384C269.651,122.075,269.582,122.101,269.513,122.101z"/>
				<path style="fill:#4F2649;" d="M286.443,164.989c-0.047,0-0.094-0.012-0.138-0.038c-0.128-0.076-0.172-0.242-0.096-0.371
					c0.048-0.08,4.693-8.154,3.691-19.606c-0.013-0.15,0.098-0.281,0.247-0.294c0.153-0.008,0.281,0.098,0.294,0.246
					c1.018,11.633-3.715,19.847-3.763,19.928C286.626,164.941,286.536,164.989,286.443,164.989z"/>
				<path style="fill:#4F2649;" d="M258.091,158.62c-0.155,0-0.311-0.004-0.469-0.014c-3.119-0.183-6.004-2.212-8.571-6.03
					c-0.084-0.124-0.051-0.293,0.073-0.377c0.124-0.085,0.293-0.051,0.376,0.074c2.467,3.668,5.209,5.617,8.15,5.791
					c4.392,0.258,7.831-3.637,7.865-3.677c0.099-0.113,0.27-0.126,0.383-0.029c0.113,0.098,0.126,0.269,0.029,0.383
					C265.787,154.905,262.542,158.62,258.091,158.62z"/>
				<path style="fill:#A475DB;" d="M264.059,129.511c-1.5,6.737,6.551,11.915,17.1,14.264c10.549,2.348,19.601,0.977,21.1-5.759
					c1.5-6.737-5.836-14.102-16.385-16.45C275.326,119.217,265.559,122.774,264.059,129.511z"/>
				<path style="fill:#4F2649;" d="M299.36,126.352c-0.116,0-0.223-0.074-0.259-0.19c-0.046-0.143,0.034-0.295,0.177-0.34
					c0.05-0.016,5.099-1.61,8.999-2.462c0.155-0.03,0.292,0.061,0.323,0.207c0.032,0.146-0.06,0.291-0.207,0.323
					c-3.876,0.847-8.902,2.434-8.953,2.449C299.415,126.347,299.387,126.352,299.36,126.352z"/>
			</g>
		</g>
	</g>
</g>
</svg>
