<?xml version="1.0" encoding="utf-8"?>
<!-- Generator: Adobe Illustrator 27.5.0, SVG Export Plug-In . SVG Version: 6.00 Build 0)  -->
<svg version="1.1" xmlns="http://www.w3.org/2000/svg" xmlns:xlink="http://www.w3.org/1999/xlink" x="0px" y="0px"
	 viewBox="0 0 500 500" style="enable-background:new 0 0 500 500;" xml:space="preserve">
<g id="BACKGROUND">
	<rect style="fill:#FFFFFF;" width="500" height="500"/>
</g>
<g id="OBJECTS">
	<path style="fill:#FFDEF2;" d="M428.343,453.018H71.657V221.325c0-98.496,79.847-178.343,178.343-178.343h0
		c98.496,0,178.343,79.847,178.343,178.343V453.018z"/>
	<g>
		<g>
			<path style="fill:#97C4BC;" d="M250.941,344.996l47.448,0c4.696,0,9.255-1.531,13.008-4.354
				c12.004-9.03,35.922-31.386,25.704-60.239c-13.424-37.902-43.857,60.945-22.061-29.539c21.796-90.484-3.768-95.062-64.098-93.641
				c-53.063,0.085-85.894,3.157-64.098,93.641c21.796,90.484-8.637-8.363-22.061,29.539c-10.219,28.853,13.7,51.209,25.704,60.239
				c3.753,2.823,8.312,4.353,13.007,4.353H250.941z"/>
			<path style="fill:#97C4BC;" d="M288.7,452.969c-0.147,0-0.293-0.064-0.392-0.189l-39.135-49.309l-41.747,49.294
				c-0.178,0.21-0.493,0.236-0.705,0.059c-0.21-0.179-0.237-0.494-0.058-0.705l41.875-49.446l-52.088-65.63
				c-0.119-0.15-0.142-0.355-0.059-0.528c0.083-0.173,0.258-0.282,0.45-0.282h108.196c0.194,0,0.372,0.113,0.454,0.29
				c0.081,0.177,0.054,0.385-0.072,0.533l-55.588,65.638l39.259,49.466c0.172,0.216,0.136,0.53-0.081,0.702
				C288.919,452.934,288.809,452.969,288.7,452.969z M197.878,337.232l51.32,64.662l54.761-64.662H197.878z"/>
			<path style="fill:#4F2649;" d="M293.548,299.144c-0.1,0-0.194-0.061-0.233-0.159c-0.05-0.129,0.014-0.273,0.143-0.324
				c14.33-5.588,18.107-12.003,18.143-12.067c0.068-0.121,0.221-0.16,0.342-0.094c0.119,0.068,0.161,0.222,0.094,0.342
				c-0.153,0.268-3.903,6.633-18.398,12.286C293.609,299.138,293.579,299.144,293.548,299.144z"/>
			<path style="fill:#4F2649;" d="M474.765,453.018H25.235c-0.304,0-0.55-0.246-0.55-0.55s0.246-0.55,0.55-0.55h449.531
				c0.304,0,0.55,0.246,0.55,0.55S475.069,453.018,474.765,453.018z"/>
			<path style="fill:#4F2649;" d="M194.392,286.945c-0.127,0-0.236-0.097-0.249-0.226c-1.154-11.986-5.605-27.697-5.65-27.854
				c-0.038-0.133,0.039-0.271,0.172-0.309c0.133-0.041,0.271,0.038,0.309,0.172c0.045,0.157,4.509,15.911,5.667,27.942
				c0.013,0.138-0.088,0.26-0.225,0.273C194.408,286.945,194.4,286.945,194.392,286.945z"/>
		</g>
		<path style="fill:#4F2649;" d="M246.347,203.199h37.322c0,0-3.464,47.235,3.464,81.244h-37.441h-37.441
			c6.928-34.009,3.464-81.244,3.464-81.244H246.347z"/>
		<g>
			
				<rect x="-2.396" y="360.881" transform="matrix(0.1055 -0.9944 0.9944 0.1055 -279.5255 412.0012)" style="fill:#97C4BC;" width="183.305" height="1"/>
			
				<rect x="412.125" y="269.728" transform="matrix(0.9944 -0.1054 0.1054 0.9944 -35.7962 45.5107)" style="fill:#97C4BC;" width="1" height="183.305"/>
			<rect x="72.726" y="269.873" style="fill:#97C4BC;" width="354.547" height="6.47"/>
			<path style="fill:#4F2649;" d="M356.4,276.593h-32.92c-0.138,0-0.25-0.112-0.25-0.25s0.112-0.25,0.25-0.25h32.92
				c0.138,0,0.25,0.112,0.25,0.25S356.538,276.593,356.4,276.593z"/>
			<path style="fill:#4F2649;" d="M201.622,276.593h-46.934c-0.138,0-0.25-0.112-0.25-0.25s0.112-0.25,0.25-0.25h46.934
				c0.138,0,0.25,0.112,0.25,0.25S201.76,276.593,201.622,276.593z"/>
		</g>
		<g>
			<path style="fill:#4F2649;" d="M226.153,418.019l-25.79,30.345c0,0-3.902,6.66,6.618,7.848
				c10.52,1.188,32.173-18.57,32.173-18.57s4.451-2.895-1.277-19.623H226.153z"/>
			<path style="fill:#FF94A1;" d="M237.72,388.79v29.229h-11.567c0,0-5.991-16.155-12.141-33.692L237.72,388.79z"/>
			<path style="fill:#FF94A1;" d="M285.988,384.328c-6.143,17.536-12.141,33.692-12.141,33.692H262.28V388.79L285.988,384.328z"/>
			<path style="fill:#A475DB;" d="M206.981,456.213c0,0,32.173-18.57,32.899-31.286c0,0,4.139,7.408-0.727,12.716
				C234.288,442.95,217.011,456.79,206.981,456.213z"/>
			<path style="fill:#4F2649;" d="M237.72,418.019c0,0-18.929-8.796-14.621,3.593C223.099,421.612,233.313,423.73,237.72,418.019z"
				/>
			<path style="fill:#4F2649;" d="M273.978,418.019l25.79,30.345c0,0,3.902,6.66-6.618,7.848
				c-10.52,1.188-32.173-18.57-32.173-18.57s-4.451-2.895,1.277-19.623H273.978z"/>
			<path style="fill:#A475DB;" d="M293.151,456.213c0,0-32.173-18.57-32.899-31.286c0,0-4.139,7.408,0.727,12.716
				C265.843,442.95,283.12,456.79,293.151,456.213z"/>
			<path style="fill:#4F2649;" d="M262.411,418.019c0,0,18.929-8.796,14.621,3.593C277.032,421.612,266.818,423.73,262.411,418.019z
				"/>
			<path style="fill:#FF5C5E;" d="M237.24,388.7l-23.227-4.372c0,0-48.19-109.086,3.122-111.219c0,0,15.454-2.026,20.395,9.12h24.94
				c0,0,3.48-9.843,17.644-9.294c19.376,0.75,42.808,6.468,5.873,111.394l-22.773,4.192c-2.068,0.381-3.976-1.204-3.982-3.307
				l-2.213-78.796h-13.497l-2.689,79.329C240.816,387.635,239.096,389.049,237.24,388.7z"/>
			<path style="fill:#4F2649;" d="M257.205,313.289c-0.135,0-0.246-0.107-0.25-0.243c-0.313-11.18,1.457-19.577,2.998-24.653
				c1.673-5.511,3.45-8.42,3.468-8.449c0.073-0.117,0.229-0.155,0.344-0.081c0.118,0.072,0.154,0.227,0.082,0.344
				c-0.017,0.029-1.767,2.897-3.422,8.355c-1.526,5.037-3.281,13.371-2.97,24.472c0.004,0.138-0.104,0.253-0.243,0.257
				C257.21,313.289,257.207,313.289,257.205,313.289z"/>
			<path style="fill:#4F2649;" d="M241.981,352.116c-0.003,0-0.005,0-0.008,0c-0.138-0.005-0.246-0.12-0.242-0.259l0.819-24.175
				c2.187-33.657-3.833-41.835-3.894-41.913c-0.084-0.109-0.065-0.267,0.043-0.352c0.108-0.084,0.265-0.064,0.351,0.043
				c0.254,0.324,6.204,8.325,3.999,42.247l-0.819,24.167C242.226,352.009,242.115,352.116,241.981,352.116z"/>
		</g>
		<g>
			<g>
				<polygon style="fill:#97C4BC;" points="193.704,67.672 197.971,70.209 170.872,109.705 145.15,92.406 120.406,88.964 
					145.301,52.917 168.298,54.333 				"/>
				<path style="fill:#4F2649;" d="M169.738,107.083l28.382-42.148c0,0-11.769-17.677-31.312-10.513c0,0-3.356-7.546-23.111-6.693
					l-22.528,39.626c0,0,13.479-1.927,24.449,5.326C145.617,92.681,160.53,91.906,169.738,107.083z"/>
				<path style="fill:#FFB769;" d="M169.94,103.177l27.374-40.899c0,0-10.923-17.393-30.466-10.229c0,0-3.356-7.546-23.111-6.693
					l-24.517,38.472c0,0,15.467-0.773,26.437,6.48C145.656,90.308,155.879,89.439,169.94,103.177z"/>
				<path style="fill:#4F2649;" d="M147.765,86.932c0.062-0.019,0.119-0.062,0.157-0.125l19.103-32.248
					c0.077-0.13,0.042-0.297-0.078-0.373c-0.12-0.075-0.281-0.031-0.357,0.099l-19.103,32.248c-0.077,0.13-0.043,0.297,0.078,0.373
					C147.626,86.945,147.699,86.952,147.765,86.932z"/>
				<path style="fill:#4F2649;" d="M180.57,81.021c-0.07,0.006-0.138-0.021-0.185-0.074c-0.078-0.088-7.9-8.792-21.287-8.711
					c-0.084,0-0.161-0.047-0.2-0.124c-0.039-0.077-0.035-0.172,0.011-0.249l10.18-17.145c0.032-0.053,0.081-0.093,0.138-0.112
					c0.118-0.036,2.992-0.947,7.356-0.336c4.013,0.562,10.077,2.586,16.179,9.033c0.08,0.084,0.087,0.22,0.017,0.32l-12.032,17.292
					c-0.033,0.047-0.08,0.081-0.132,0.097C180.601,81.017,180.586,81.02,180.57,81.021z M169.433,55.055l-9.907,16.685
					c12.18,0.087,19.729,7.322,21.014,8.652l11.743-16.877C181.372,52.105,170.51,54.755,169.433,55.055z"/>
				<path style="fill:#4F2649;" d="M171.427,79.579c0.055-0.017,0.106-0.054,0.14-0.109c0.072-0.117,0.043-0.27-0.064-0.341
					c-4.02-2.654-8.553-4.325-13.473-4.967c-0.129-0.016-0.249,0.08-0.271,0.216s0.065,0.26,0.193,0.277
					c4.854,0.633,9.325,2.281,13.289,4.899C171.298,79.59,171.366,79.598,171.427,79.579z"/>
				<path style="fill:#4F2649;" d="M177.268,84.729c0.031-0.009,0.061-0.025,0.088-0.048c0.103-0.088,0.122-0.245,0.043-0.349
					c-0.048-0.065-1.211-1.596-3.56-3.495c-0.101-0.081-0.249-0.059-0.331,0.052c-0.082,0.11-0.066,0.266,0.034,0.347
					c2.303,1.861,3.472,3.4,3.484,3.415C177.085,84.728,177.181,84.755,177.268,84.729z"/>
				<path style="fill:#4F2649;" d="M173.799,89.841c0.031-0.009,0.061-0.025,0.088-0.048c0.103-0.088,0.123-0.244,0.044-0.349
					c-2.966-3.958-6.943-6.874-11.82-8.665c-0.121-0.044-0.258,0.024-0.305,0.154c-0.048,0.13,0.012,0.271,0.133,0.315
					c4.797,1.762,8.706,4.626,11.62,8.514C173.616,89.84,173.712,89.868,173.799,89.841z"/>
				<path style="fill:#4F2649;" d="M160.226,80.642c0.077-0.023,0.143-0.086,0.169-0.173c0.04-0.132-0.028-0.268-0.152-0.304
					c-3.103-0.905-5.296-0.987-5.387-0.991c-0.131-0.003-0.243,0.104-0.252,0.24c-0.01,0.137,0.087,0.252,0.216,0.256
					c0.022,0.001,2.233,0.085,5.28,0.973C160.142,80.656,160.186,80.654,160.226,80.642z"/>
				<path style="fill:#4F2649;" d="M169.55,95.887c0.03-0.009,0.058-0.024,0.085-0.045c0.104-0.086,0.127-0.242,0.049-0.349
					c-2.879-3.979-6.562-7.092-10.949-9.252c-0.291-0.143-0.576-0.278-0.856-0.405c-0.116-0.053-0.256,0.006-0.313,0.133
					c-0.055,0.126-0.005,0.271,0.112,0.325c0.275,0.124,0.557,0.257,0.843,0.398c4.321,2.128,7.949,5.194,10.784,9.113
					C169.364,95.885,169.461,95.914,169.55,95.887z"/>
				<path style="fill:#4F2649;" d="M163.677,54.228c0.051-0.015,0.099-0.049,0.133-0.099c0.077-0.113,0.057-0.268-0.048-0.345
					c-0.076-0.057-7.772-5.652-19.949-5.14c-0.131,0.007-0.236,0.121-0.236,0.258c-0.001,0.137,0.104,0.243,0.234,0.238
					c12.014-0.505,19.594,5,19.669,5.055C163.539,54.238,163.611,54.248,163.677,54.228z"/>
				<path style="fill:#4F2649;" d="M148.896,53.585c0.085-0.026,0.156-0.101,0.175-0.198c0.027-0.135-0.055-0.263-0.181-0.285
					c-2.582-0.452-5.246-0.625-7.919-0.512c-0.13,0.004-0.236,0.121-0.236,0.258c-0.001,0.137,0.104,0.243,0.234,0.238
					c2.641-0.111,5.273,0.06,7.824,0.506C148.827,53.597,148.863,53.595,148.896,53.585z"/>
				<path style="fill:#4F2649;" d="M160.833,58.173c0.051-0.015,0.099-0.049,0.133-0.099c0.078-0.113,0.057-0.268-0.048-0.345
					c-0.032-0.024-3.267-2.392-8.797-3.905c-0.123-0.035-0.255,0.045-0.293,0.179c-0.038,0.133,0.032,0.268,0.156,0.302
					c5.452,1.491,8.621,3.812,8.653,3.835C160.696,58.183,160.768,58.193,160.833,58.173z"/>
				<path style="fill:#4F2649;" d="M158.32,62.968c0.051-0.016,0.099-0.049,0.133-0.099c0.077-0.113,0.057-0.267-0.048-0.345
					c-0.076-0.057-7.772-5.652-19.949-5.14c-0.131,0.006-0.236,0.121-0.236,0.258c-0.001,0.137,0.104,0.244,0.234,0.238
					c12.014-0.505,19.594,5,19.669,5.055C158.183,62.978,158.255,62.988,158.32,62.968z"/>
				<path style="fill:#4F2649;" d="M152.684,71.703c0.051-0.015,0.099-0.049,0.133-0.099c0.077-0.114,0.057-0.268-0.048-0.345
					c-0.076-0.057-7.772-5.652-19.949-5.14c-0.131,0.007-0.235,0.121-0.236,0.258c-0.001,0.137,0.104,0.244,0.234,0.238
					c12.014-0.505,19.594,5,19.669,5.055C152.547,71.714,152.619,71.723,152.684,71.703z"/>
				<path style="fill:#4F2649;" d="M146.893,82.055c0.051-0.015,0.099-0.049,0.133-0.099c0.077-0.114,0.057-0.268-0.048-0.345
					c-0.076-0.057-7.771-5.653-19.948-5.141c-0.132,0.008-0.236,0.121-0.236,0.258c-0.001,0.137,0.104,0.244,0.234,0.238
					c12.014-0.505,19.594,5,19.669,5.056C146.755,82.065,146.827,82.075,146.893,82.055z"/>
				<path style="fill:#4F2649;" d="M154.013,69.099c-0.066,0.011-0.131-0.007-0.181-0.05c-0.061-0.053-6.232-5.309-18.491-5.66
					c-0.087-0.003-0.164-0.056-0.199-0.138c-0.035-0.083-0.023-0.181,0.032-0.256l2.108-2.889c0.042-0.058,0.105-0.095,0.173-0.101
					c0.095-0.009,9.569-0.84,19.109,4.932c0.055,0.034,0.094,0.091,0.107,0.158c0.013,0.067-0.002,0.138-0.04,0.195l-2.454,3.702
					c-0.033,0.05-0.081,0.086-0.135,0.102C154.032,69.095,154.023,69.098,154.013,69.099z M137.581,60.49l-1.763,2.418
					c10.913,0.42,16.977,4.703,18.123,5.591l2.161-3.259C147.302,60.008,138.629,60.418,137.581,60.49z"/>
				<path style="fill:#4F2649;" d="M140.204,75.897c-5.172-1.949-11.795-1.472-11.862-1.467c-0.088,0.007-0.17-0.038-0.212-0.118
					c-0.042-0.079-0.038-0.178,0.01-0.258l2.908-4.757c0.048-0.08,0.133-0.127,0.219-0.12c7.834,0.466,11.751,1.98,11.79,1.995
					c0.065,0.026,0.114,0.082,0.134,0.152c0.02,0.071,0.008,0.148-0.031,0.212l-2.674,4.256c-0.034,0.054-0.084,0.091-0.139,0.108
					C140.301,75.915,140.251,75.915,140.204,75.897z M131.361,69.682l-2.585,4.228c1.571-0.069,6.981-0.167,11.428,1.453
					l2.401-3.821C141.609,71.206,137.875,70.083,131.361,69.682z"/>
				<path style="fill:#4F2649;" d="M149.813,77.13c0.048-0.014,0.092-0.044,0.126-0.089c0.083-0.109,0.069-0.265-0.031-0.348
					c-1.935-1.601-5.424-2.44-5.572-2.475c-0.125-0.029-0.255,0.054-0.288,0.189c-0.034,0.134,0.041,0.266,0.166,0.296
					c0.035,0.008,3.539,0.851,5.394,2.386C149.667,77.139,149.743,77.151,149.813,77.13z"/>
			</g>
			<g>
				<polygon style="fill:#FF5C5E;" points="348.716,353.75 344.468,351.18 322.389,393.686 349.764,408.23 364.454,428.437 
					384.528,389.499 372.448,369.879 				"/>
				<path style="fill:#4F2649;" d="M325.236,393.452l23.814-44.888c0,0,21.137,2.057,24.021,22.671c0,0,8.238-0.593,16.789,17.236
					l-24.346,38.536c0,0-4.648-12.798-16.213-19.059C349.301,407.948,342.961,394.427,325.236,393.452z"/>
				<path style="fill:#FFB769;" d="M328.587,391.434l23.187-43.409c0,0,20.487,1.445,23.372,22.058c0,0,8.238-0.593,16.789,17.236
					l-22.391,39.747c0,0-6.603-14.009-18.168-20.27C351.376,406.796,347.328,397.368,328.587,391.434z"/>
				<path style="fill:#4F2649;" d="M353.361,403.345c-0.013-0.064-0.002-0.134,0.036-0.197l19.451-32.04
					c0.078-0.129,0.242-0.177,0.366-0.107c0.123,0.071,0.16,0.233,0.081,0.362l-19.451,32.04c-0.078,0.129-0.242,0.178-0.366,0.107
					C353.415,403.474,353.374,403.413,353.361,403.345z"/>
				<path style="fill:#4F2649;" d="M348.703,379.009c-0.011-0.057-0.002-0.119,0.031-0.175c0.07-0.119,0.217-0.165,0.331-0.104
					c4.234,2.296,7.844,5.508,10.727,9.546c0.075,0.106,0.047,0.258-0.063,0.341c-0.11,0.083-0.26,0.065-0.335-0.04
					c-2.844-3.984-6.404-7.152-10.58-9.416C348.754,379.128,348.716,379.072,348.703,379.009z"/>
				<path style="fill:#4F2649;" d="M341.41,376.282c-0.006-0.032-0.006-0.066,0.001-0.1c0.03-0.132,0.158-0.223,0.288-0.203
					c0.08,0.012,1.978,0.317,4.76,1.495c0.12,0.051,0.169,0.192,0.11,0.316c-0.059,0.124-0.203,0.183-0.322,0.133
					c-2.726-1.155-4.634-1.462-4.653-1.465C341.497,376.443,341.428,376.371,341.41,376.282z"/>
				<path style="fill:#4F2649;" d="M338.534,381.75c-0.006-0.032-0.006-0.065,0.001-0.1c0.029-0.132,0.158-0.224,0.288-0.203
					c4.889,0.752,9.333,2.887,13.211,6.346c0.096,0.086,0.1,0.239,0.007,0.341c-0.092,0.103-0.244,0.117-0.34,0.032
					c-3.813-3.402-8.181-5.501-12.983-6.24C338.621,381.911,338.551,381.839,338.534,381.75z"/>
				<path style="fill:#4F2649;" d="M353.041,389.39c-0.016-0.079,0.009-0.167,0.074-0.23c0.098-0.097,0.25-0.102,0.34-0.009
					c2.26,2.312,3.365,4.207,3.411,4.286c0.064,0.114,0.022,0.263-0.093,0.335c-0.116,0.073-0.263,0.042-0.328-0.07
					c-0.011-0.019-1.127-1.93-3.345-4.199C353.069,389.471,353.049,389.432,353.041,389.39z"/>
				<path style="fill:#4F2649;" d="M335.201,388.346c-0.006-0.031-0.006-0.063,0-0.096c0.027-0.133,0.154-0.226,0.285-0.208
					c4.866,0.665,9.347,2.449,13.318,5.301c0.263,0.189,0.517,0.377,0.76,0.564c0.102,0.077,0.115,0.229,0.03,0.339
					c-0.085,0.108-0.237,0.132-0.339,0.054c-0.239-0.184-0.489-0.37-0.748-0.556c-3.912-2.809-8.326-4.566-13.118-5.221
					C335.291,388.509,335.22,388.436,335.201,388.346z"/>
				<path style="fill:#4F2649;" d="M374.717,373.906c-0.01-0.053-0.003-0.11,0.025-0.164c0.064-0.122,0.21-0.176,0.327-0.12
					c0.086,0.04,8.646,4.194,13.93,15.177c0.056,0.119,0.004,0.265-0.116,0.329c-0.12,0.065-0.264,0.023-0.32-0.094
					c-5.212-10.836-13.638-14.93-13.723-14.97C374.773,374.033,374.73,373.974,374.717,373.906z"/>
				<path style="fill:#4F2649;" d="M382.246,386.643c-0.018-0.087,0.016-0.185,0.092-0.247c0.107-0.087,0.258-0.076,0.337,0.026
					c1.615,2.065,3.022,4.333,4.182,6.744c0.058,0.116,0.004,0.265-0.117,0.329c-0.12,0.065-0.263,0.023-0.32-0.094
					c-1.146-2.382-2.536-4.624-4.131-6.663C382.267,386.709,382.253,386.676,382.246,386.643z"/>
				<path style="fill:#4F2649;" d="M372.576,378.273c-0.01-0.052-0.003-0.11,0.025-0.164c0.063-0.122,0.209-0.176,0.326-0.12
					c0.036,0.017,3.649,1.756,7.588,5.921c0.089,0.092,0.081,0.246-0.02,0.343c-0.099,0.096-0.252,0.098-0.34,0.004
					c-3.884-4.107-7.423-5.81-7.458-5.827C372.632,378.399,372.59,378.34,372.576,378.273z"/>
				<path style="fill:#4F2649;" d="M369.53,382.748c-0.01-0.053-0.003-0.11,0.025-0.164c0.064-0.122,0.21-0.176,0.327-0.12
					c0.086,0.04,8.646,4.194,13.93,15.177c0.056,0.119,0.004,0.265-0.116,0.329c-0.12,0.065-0.264,0.023-0.32-0.094
					c-5.212-10.836-13.638-14.93-13.723-14.971C369.586,382.874,369.543,382.815,369.53,382.748z"/>
				<path style="fill:#4F2649;" d="M364.478,391.834c-0.01-0.052-0.003-0.11,0.025-0.164c0.064-0.122,0.21-0.176,0.327-0.12
					c0.086,0.04,8.646,4.194,13.93,15.177c0.056,0.118,0.004,0.265-0.116,0.329c-0.12,0.065-0.264,0.023-0.32-0.094
					c-5.212-10.836-13.638-14.93-13.723-14.97C364.534,391.96,364.492,391.901,364.478,391.834z"/>
				<path style="fill:#4F2649;" d="M358.074,401.818c-0.01-0.052-0.003-0.11,0.025-0.164c0.064-0.122,0.209-0.176,0.326-0.12
					c0.086,0.04,8.647,4.193,13.93,15.176c0.055,0.12,0.004,0.265-0.116,0.329c-0.12,0.065-0.264,0.023-0.32-0.094
					c-5.212-10.836-13.639-14.93-13.723-14.97C358.13,401.944,358.088,401.885,358.074,401.818z"/>
				<path style="fill:#4F2649;" d="M366.142,389.407c-0.011-0.056-0.002-0.115,0.026-0.167l2.11-3.908
					c0.033-0.061,0.089-0.107,0.153-0.128c0.065-0.02,0.134-0.013,0.189,0.02c9.584,5.698,13.314,14.447,13.35,14.535
					c0.026,0.063,0.023,0.136-0.008,0.2l-1.556,3.22c-0.04,0.083-0.121,0.14-0.211,0.148c-0.089,0.008-0.172-0.034-0.216-0.11
					c-6.083-10.65-13.626-13.618-13.701-13.647c-0.061-0.023-0.109-0.073-0.13-0.136
					C366.146,389.426,366.144,389.417,366.142,389.407z M368.57,385.775l-1.858,3.441c1.324,0.592,7.957,3.926,13.468,13.354
					l1.302-2.694C381.053,398.918,377.33,391.073,368.57,385.775z"/>
				<path style="fill:#4F2649;" d="M366.585,404.694c-0.011-0.056-0.002-0.118,0.03-0.173l2.495-4.364
					c0.037-0.065,0.1-0.112,0.172-0.127c0.072-0.015,0.144,0.002,0.198,0.047c0.032,0.027,3.212,2.77,7.313,9.461
					c0.047,0.073,0.045,0.17-0.003,0.25l-2.827,4.805c-0.047,0.08-0.133,0.13-0.223,0.13c-0.09,0-0.168-0.051-0.204-0.132
					c-0.027-0.061-2.725-6.128-6.88-9.773C366.619,404.785,366.595,404.741,366.585,404.694z M369.367,400.65l-2.24,3.917
					c3.524,3.16,5.985,7.978,6.664,9.396l2.512-4.272C372.883,404.134,370.133,401.37,369.367,400.65z"/>
				<path style="fill:#4F2649;" d="M361.043,396.922c-0.01-0.049-0.004-0.102,0.019-0.153c0.057-0.124,0.201-0.185,0.321-0.136
					c2.324,0.952,4.706,3.636,4.807,3.75c0.085,0.097,0.072,0.25-0.031,0.342c-0.102,0.093-0.254,0.09-0.339-0.007
					c-0.024-0.027-2.417-2.721-4.645-3.634C361.105,397.055,361.058,396.994,361.043,396.922z"/>
				<path style="fill:#4F2649;" d="M362.472,383.936c-0.075,0-0.149-0.034-0.198-0.099c-7.261-9.509-18.215-11.847-18.324-11.869
					c-0.136-0.028-0.223-0.16-0.195-0.295c0.028-0.136,0.16-0.22,0.295-0.195c0.112,0.023,11.244,2.393,18.621,12.057
					c0.084,0.109,0.064,0.267-0.047,0.35C362.579,383.919,362.525,383.936,362.472,383.936z"/>
				<path style="fill:#4F2649;" d="M365.723,379.32c-0.076,0-0.151-0.035-0.2-0.101c-7.391-9.94-18.86-12.234-18.976-12.257
					c-0.136-0.025-0.225-0.156-0.198-0.292c0.025-0.136,0.16-0.232,0.292-0.198c0.117,0.022,11.773,2.348,19.282,12.448
					c0.083,0.111,0.06,0.268-0.051,0.35C365.828,379.304,365.775,379.32,365.723,379.32z"/>
				<path style="fill:#4F2649;" d="M366.712,376.226c-0.082,0-0.159-0.04-0.206-0.108c-8.418-12.235-18.302-14.539-18.4-14.56
					c-0.078-0.018-0.143-0.07-0.175-0.143c-0.032-0.073-0.028-0.156,0.012-0.226l5.196-9.084c0.057-0.1,0.172-0.148,0.286-0.116
					c9.071,2.607,13.603,7.005,15.807,10.234c2.4,3.518,2.636,6.381,2.645,6.501c0.005,0.057-0.011,0.112-0.042,0.159l-4.915,7.233
					c-0.047,0.068-0.124,0.109-0.206,0.109C366.712,376.226,366.712,376.226,366.712,376.226z M348.54,361.152
					c0.792,0.22,2.947,0.912,5.806,2.601c3.225,1.905,7.965,5.489,12.365,11.782l4.658-6.856
					c-0.127-1.04-1.811-11.454-17.894-16.154L348.54,361.152z"/>
			</g>
			<g>
				<polygon style="fill:#6E89EA;" points="364.212,73.213 322.251,114.435 324.247,129.17 361.215,143.905 403.969,99.504 
					400.179,79.582 				"/>
				<polygon style="fill:#FF94A1;" points="322.251,114.435 358.727,125.794 361.215,143.905 324.247,129.17 				"/>
				<path style="fill:#4F2649;" d="M361.215,122.25c-0.062,0-0.123-0.022-0.171-0.067c-0.101-0.094-0.107-0.252-0.012-0.354
					l36.6-39.096c0.096-0.102,0.254-0.105,0.354-0.012c0.1,0.094,0.106,0.252,0.012,0.354l-36.601,39.096
					C361.348,122.224,361.282,122.25,361.215,122.25z"/>
				<path style="fill:#4F2649;" d="M379.515,121.826c-0.023,0-0.048-0.003-0.071-0.01c-0.09-0.027-0.157-0.102-0.175-0.195
					l-2.042-11.125c-0.014-0.077,0.009-0.156,0.061-0.214l20.343-22.144c0.065-0.071,0.166-0.096,0.254-0.071
					c0.091,0.026,0.159,0.102,0.177,0.195l2.119,11.655c0.014,0.079-0.01,0.159-0.064,0.217l-20.42,21.614
					C379.649,121.799,379.583,121.826,379.515,121.826z M377.742,110.529l1.931,10.517l19.994-21.163l-2.007-11.036L377.742,110.529
					z"/>
				<path style="fill:#4F2649;" d="M365.883,136.072c-0.124,0-0.23-0.091-0.248-0.217l-1.715-12.754
					c-0.018-0.137,0.078-0.263,0.215-0.281c0.132-0.024,0.262,0.078,0.281,0.214l1.715,12.754c0.018,0.137-0.078,0.263-0.215,0.281
					C365.906,136.072,365.894,136.072,365.883,136.072z"/>
				<path style="fill:#4F2649;" d="M369.517,131.957c-0.124,0-0.23-0.091-0.248-0.217l-1.715-12.754
					c-0.018-0.137,0.078-0.263,0.215-0.281c0.131-0.025,0.262,0.078,0.281,0.214l1.715,12.754c0.018,0.137-0.078,0.263-0.215,0.281
					C369.54,131.957,369.528,131.957,369.517,131.957z"/>
				<path style="fill:#4F2649;" d="M371.964,102.702c-0.023,0-0.048-0.003-0.072-0.011l-25.152-7.62
					c-0.133-0.04-0.207-0.18-0.167-0.312c0.039-0.132,0.176-0.209,0.312-0.167l25.152,7.62c0.133,0.04,0.207,0.18,0.167,0.312
					C372.171,102.633,372.072,102.702,371.964,102.702z"/>
				<path style="fill:#4F2649;" d="M363.11,104.349c-0.021,0-0.044-0.003-0.066-0.009l-14.975-4.104
					c-0.133-0.037-0.211-0.174-0.175-0.307c0.037-0.133,0.172-0.21,0.308-0.175l14.975,4.103c0.133,0.037,0.211,0.174,0.175,0.307
					C363.321,104.276,363.22,104.349,363.11,104.349z"/>
				<path style="fill:#4F2649;" d="M377.473,99.583c-0.023,0-0.046-0.003-0.068-0.01l-26.955-7.678
					c-0.084-0.023-0.149-0.089-0.173-0.173c-0.023-0.084-0.001-0.174,0.059-0.238l13.65-14.562c0.06-0.063,0.147-0.091,0.231-0.074
					l29.374,5.81c0.09,0.018,0.163,0.084,0.19,0.171c0.026,0.088,0.004,0.184-0.061,0.249l-16.069,16.429
					C377.604,99.557,377.54,99.583,377.473,99.583z M350.981,91.527l26.418,7.525l15.642-15.992l-28.784-5.694L350.981,91.527z"/>
				<path style="fill:#4F2649;" d="M339.089,115.428c-0.024,0-0.05-0.003-0.075-0.011l-9.814-3.078
					c-0.132-0.041-0.205-0.182-0.163-0.313c0.041-0.131,0.178-0.205,0.314-0.164l9.814,3.078c0.132,0.042,0.205,0.182,0.163,0.313
					C339.294,115.359,339.195,115.428,339.089,115.428z"/>
			</g>
			<g>
				<polygon style="fill:#B55757;" points="161.728,356.572 133.325,319.395 121.498,319.519 106.229,347.246 137.064,385.361 
					153.16,384.332 				"/>
				<polygon style="fill:#FFB769;" points="133.325,319.395 120.768,347.065 106.229,347.246 121.498,319.519 				"/>
				<path style="fill:#4F2649;" d="M150.771,382.389c-0.072,0-0.143-0.03-0.192-0.09l-27.253-32.736
					c-0.088-0.106-0.074-0.264,0.032-0.353c0.106-0.088,0.264-0.074,0.352,0.032l27.253,32.736c0.088,0.107,0.074,0.264-0.032,0.353
					C150.884,382.37,150.827,382.389,150.771,382.389z"/>
				<path style="fill:#4F2649;" d="M137.099,382.382c-0.074,0-0.145-0.033-0.193-0.091l-15.048-18.244
					c-0.06-0.073-0.074-0.173-0.036-0.259c0.038-0.087,0.121-0.145,0.215-0.15l8.981-0.517c0.069-0.004,0.154,0.028,0.205,0.088
					l15.474,18.236c0.061,0.072,0.077,0.174,0.039,0.261c-0.037,0.087-0.121,0.146-0.216,0.151l-9.407,0.524
					C137.108,382.382,137.103,382.382,137.099,382.382z M122.557,364.11l14.654,17.766l8.779-0.489l-15.068-17.758L122.557,364.11z"
					/>
				<path style="fill:#4F2649;" d="M112.149,351.976c-0.137,0-0.249-0.11-0.25-0.248c-0.002-0.138,0.109-0.251,0.247-0.252
					l10.235-0.098c0.129,0.009,0.251,0.109,0.252,0.248c0.002,0.138-0.109,0.251-0.247,0.252l-10.235,0.098
					C112.15,351.976,112.15,351.976,112.149,351.976z"/>
				<path style="fill:#4F2649;" d="M115.039,355.249c-0.137,0-0.248-0.11-0.25-0.248c-0.002-0.138,0.109-0.251,0.248-0.252
					l10.235-0.098c0.001,0,0.001,0,0.002,0c0.137,0,0.249,0.11,0.25,0.248c0.001,0.138-0.109,0.251-0.248,0.252l-10.235,0.098
					C115.04,355.249,115.04,355.249,115.039,355.249z"/>
				<path style="fill:#4F2649;" d="M137.888,360.061c-0.034,0-0.068-0.007-0.102-0.022c-0.126-0.056-0.183-0.204-0.127-0.33
					l8.49-19.102c0.056-0.126,0.204-0.182,0.33-0.127c0.126,0.056,0.183,0.204,0.127,0.33l-8.49,19.102
					C138.075,360.005,137.983,360.061,137.888,360.061z"/>
				<path style="fill:#4F2649;" d="M137.46,352.91c-0.032,0-0.064-0.006-0.095-0.019c-0.128-0.053-0.189-0.199-0.136-0.327
					l4.713-11.414c0.053-0.126,0.199-0.189,0.326-0.136c0.128,0.053,0.189,0.199,0.136,0.327l-4.713,11.414
					C137.651,352.852,137.558,352.91,137.46,352.91z"/>
				<path style="fill:#4F2649;" d="M151.191,379.016c-0.075,0-0.147-0.034-0.196-0.095l-11.385-14.3
					c-0.057-0.071-0.07-0.169-0.034-0.253l8.714-20.519c0.034-0.08,0.107-0.137,0.194-0.149c0.083-0.016,0.173,0.02,0.229,0.087
					l10.149,12.207c0.055,0.066,0.072,0.157,0.045,0.238l-7.478,22.611c-0.029,0.088-0.103,0.152-0.193,0.168
					C151.221,379.015,151.206,379.016,151.191,379.016z M140.095,364.427l11.004,13.821l7.29-22.041l-9.798-11.785L140.095,364.427z
					"/>
				<path style="fill:#4F2649;" d="M131.081,332.861c-0.035,0-0.07-0.007-0.104-0.022c-0.126-0.058-0.181-0.206-0.124-0.331
					l3.396-7.443c0.057-0.125,0.209-0.181,0.331-0.124c0.126,0.058,0.181,0.206,0.124,0.331l-3.396,7.443
					C131.266,332.806,131.175,332.861,131.081,332.861z"/>
			</g>
			<g>
				<path style="fill:#B55757;" d="M128.602,180.044l-56.781-32.095c-0.731-0.413-1.659-0.156-2.072,0.576l-5.863,10.373
					c-0.413,0.731-0.156,1.659,0.576,2.072l56.781,32.095c0.731,0.413,1.659,0.156,2.072-0.576l5.863-10.373
					C129.591,181.385,129.333,180.457,128.602,180.044z"/>
				<path style="fill:#4F2649;" d="M118.764,188.921l-13.946-7.883c-0.097-0.055-0.135-0.173-0.084-0.262l4.826-8.538
					c0.051-0.09,0.171-0.118,0.268-0.063l13.946,7.883c0.097,0.055,0.134,0.173,0.084,0.262l-4.826,8.538
					C118.981,188.947,118.861,188.976,118.764,188.921z M105.178,180.812l13.594,7.684l4.642-8.212L109.82,172.6L105.178,180.812z"
					/>
				<path style="fill:#4F2649;" d="M83.718,169.111l-13.946-7.883c-0.097-0.055-0.135-0.173-0.084-0.262l4.826-8.538
					c0.051-0.09,0.171-0.118,0.268-0.063l13.946,7.883c0.097,0.055,0.134,0.173,0.084,0.262l-4.826,8.538
					C83.935,169.138,83.815,169.167,83.718,169.111z M70.132,161.002l13.594,7.684l4.642-8.212l-13.594-7.684L70.132,161.002z"/>
				<path style="fill:#4F2649;" d="M93.241,173.605c-0.04,0-0.081-0.01-0.119-0.03c-0.122-0.066-0.167-0.218-0.101-0.339l4.18-7.706
					c0.066-0.122,0.219-0.167,0.339-0.101c0.121,0.066,0.167,0.218,0.101,0.339l-4.18,7.706
					C93.416,173.558,93.33,173.605,93.241,173.605z"/>
				<path style="fill:#4F2649;" d="M88.681,171.306c-0.04,0-0.081-0.01-0.119-0.03c-0.122-0.066-0.167-0.218-0.101-0.339l4.32-7.964
					c0.066-0.122,0.22-0.166,0.339-0.101c0.122,0.066,0.167,0.218,0.101,0.339l-4.32,7.964
					C88.855,171.259,88.769,171.306,88.681,171.306z"/>
				<path style="fill:#4F2649;" d="M97.768,176.537c-0.04,0-0.081-0.01-0.119-0.03c-0.122-0.066-0.166-0.218-0.101-0.339
					l4.439-8.183c0.066-0.122,0.219-0.166,0.339-0.101c0.122,0.066,0.167,0.218,0.101,0.339l-4.439,8.183
					C97.942,176.49,97.857,176.537,97.768,176.537z"/>
			</g>
			<g>
				<polygon style="fill:#4F2649;" points="377.643,209.707 410.522,221.962 440.965,179.544 407.681,169.802 				"/>
				<path style="fill:#FFDEF2;" d="M416.143,178.083c-0.034,0-0.068-0.007-0.101-0.021c-2.087-0.92-5.011-1.975-9.123-1.975
					c-0.138,0-0.25-0.112-0.25-0.25s0.112-0.25,0.25-0.25c4.206,0,7.192,1.078,9.324,2.017c0.127,0.056,0.184,0.204,0.128,0.33
					C416.331,178.028,416.239,178.083,416.143,178.083z"/>
				<path style="fill:#FFDEF2;" d="M432.694,184.641c-0.085,0-0.168-0.043-0.215-0.122c-0.021-0.035-2.133-3.473-7.084-3.143
					c-2.357,0.155-4.368-0.867-6.715-2.047l-0.73-0.365c-0.124-0.062-0.174-0.212-0.112-0.336c0.061-0.123,0.211-0.173,0.335-0.113
					l0.732,0.367c2.282,1.147,4.271,2.141,6.457,1.995c5.284-0.343,7.524,3.349,7.547,3.386c0.07,0.118,0.031,0.271-0.087,0.342
					C432.782,184.63,432.738,184.641,432.694,184.641z"/>
				<path style="fill:#FFDEF2;" d="M430.08,188.037c-3.046,0-4.371-0.193-6.444-0.939c-0.13-0.047-0.197-0.19-0.15-0.32
					c0.047-0.13,0.19-0.194,0.32-0.151c2.008,0.723,3.298,0.91,6.274,0.91c0.138,0,0.25,0.112,0.25,0.25
					S430.217,188.037,430.08,188.037z"/>
				<path style="fill:#FFDEF2;" d="M420.913,186.066c-0.033,0-0.067-0.007-0.101-0.021c-0.971-0.426-1.856-0.871-2.713-1.302
					c-2.284-1.148-4.253-2.137-6.462-1.997c-1.1,0.071-1.511,0.099-2.396-0.128c-0.134-0.034-0.214-0.171-0.18-0.304
					c0.034-0.134,0.165-0.213,0.305-0.18c0.806,0.208,1.139,0.185,2.237,0.113c2.343-0.155,4.37,0.867,6.72,2.049
					c0.851,0.428,1.73,0.87,2.689,1.29c0.126,0.056,0.184,0.203,0.128,0.33C421.1,186.011,421.008,186.066,420.913,186.066z"/>
				<path style="fill:#FFDEF2;" d="M407.461,182.068c-0.034,0-0.068-0.007-0.101-0.021c-2.242-0.986-3.228-2.617-3.27-2.686
					c-0.07-0.119-0.031-0.271,0.087-0.342c0.116-0.069,0.271-0.033,0.343,0.087c0.009,0.016,0.953,1.565,3.041,2.483
					c0.127,0.056,0.184,0.203,0.128,0.33C407.648,182.012,407.556,182.068,407.461,182.068z"/>
				<path style="fill:#FFDEF2;" d="M416.579,203.895c-3.046,0-4.371-0.193-6.445-0.939c-0.13-0.047-0.197-0.19-0.15-0.32
					c0.048-0.13,0.188-0.195,0.32-0.151c2.009,0.723,3.299,0.91,6.275,0.91c0.138,0,0.25,0.112,0.25,0.25
					C416.829,203.783,416.716,203.895,416.579,203.895z"/>
				<path style="fill:#FFDEF2;" d="M407.412,201.924c-0.033,0-0.067-0.007-0.101-0.021c-0.972-0.426-1.857-0.872-2.715-1.303
					c-2.283-1.147-4.252-2.132-6.46-1.996c-1.101,0.072-1.511,0.099-2.396-0.128c-0.134-0.034-0.214-0.171-0.18-0.304
					c0.035-0.134,0.165-0.216,0.305-0.18c0.806,0.208,1.14,0.186,2.237,0.113c2.339-0.158,4.369,0.867,6.718,2.048
					c0.852,0.428,1.732,0.871,2.691,1.291c0.126,0.056,0.184,0.203,0.128,0.33C407.599,201.868,407.507,201.924,407.412,201.924z"/>
				<path style="fill:#FFDEF2;" d="M393.96,197.925c-0.034,0-0.068-0.007-0.101-0.021c-2.242-0.986-3.23-2.617-3.271-2.686
					c-0.07-0.119-0.031-0.272,0.087-0.342c0.116-0.071,0.272-0.033,0.343,0.086c0.009,0.016,0.954,1.565,3.042,2.483
					c0.127,0.056,0.184,0.203,0.128,0.33C394.147,197.87,394.055,197.925,393.96,197.925z"/>
				<path style="fill:#FFDEF2;" d="M414.468,190.257c-0.029,0-0.06-0.005-0.089-0.016c-0.98-0.374-1.972-0.871-3.02-1.399
					c-3.022-1.52-6.448-3.241-11.757-3.241c-0.138,0-0.25-0.112-0.25-0.25s0.112-0.25,0.25-0.25c5.428,0,9.061,1.827,11.981,3.294
					c1.037,0.521,2.018,1.014,2.974,1.378c0.129,0.049,0.194,0.194,0.145,0.323C414.664,190.196,414.569,190.257,414.468,190.257z"
					/>
				<path style="fill:#FFDEF2;" d="M425.377,194.155c-0.085,0-0.168-0.044-0.215-0.122c-0.02-0.035-2.147-3.471-7.084-3.143
					c-0.161,0.014-0.258-0.096-0.266-0.233c-0.01-0.138,0.095-0.257,0.232-0.266c5.29-0.335,7.524,3.349,7.547,3.386
					c0.07,0.119,0.031,0.271-0.087,0.342C425.464,194.143,425.421,194.155,425.377,194.155z"/>
				<path style="fill:#FFDEF2;" d="M413.926,196.858c-0.03,0-0.061-0.005-0.092-0.018c-1.351-0.535-2.531-1.128-3.672-1.702
					c-2.284-1.148-4.25-2.135-6.462-1.997c-5.292,0.339-7.524-3.349-7.547-3.386c-0.07-0.118-0.031-0.271,0.087-0.342
					c0.116-0.069,0.271-0.033,0.343,0.087c0.021,0.035,2.126,3.466,7.084,3.143c2.348-0.155,4.37,0.867,6.72,2.049
					c1.131,0.569,2.301,1.157,3.631,1.684c0.129,0.051,0.191,0.196,0.141,0.325C414.12,196.798,414.026,196.858,413.926,196.858z"/>
				<path style="fill:#6E89EA;" d="M389.077,192.043l-8.392,5.146c0,0-1.191,2.051,2.489,2.285c0,0-4.803,9.139,3.826,8.813
					c0.92-0.035,1.814-0.324,2.617-0.774l3.593-2.013c0.516-0.289,0.987-0.646,1.399-1.072c1.939-2.005,6.429-7.786-4.306-9.451
					C390.303,194.977,391.827,192.493,389.077,192.043z"/>
				<path style="fill:#4F2649;" d="M386.567,193.582c0,0-2.042-8.254-6.065-14.451c-0.396-0.609-2.425,0.802-2.858,0.242
					c-0.323-0.417,0.958-2.818,0.613-3.198c-1.294-1.428-2.738-2.567-4.329-3.2c-0.463-0.184-1.212,2.723-1.7,2.63
					c-0.397-0.076-0.528-3.17-0.942-3.179c-3.538-0.083-7.68,2.369-12.416,9.141c0,0,2.297-1.099,6.333-0.156
					c0.436,0.102,1.367-1.982,1.843-1.828c0.476,0.154,0.496,2.544,1.01,2.757c2.415,1,5.247,2.701,8.422,5.512
					c0.477,0.423,3.531-1.103,4.023-0.629c0.468,0.45-1.626,2.898-1.145,3.397c1.348,1.399,2.748,2.994,4.194,4.813L386.567,193.582
					z"/>
				<path style="fill:#FFDEF2;" d="M384.352,193.368c-0.097,0-0.189-0.056-0.23-0.15c-3.621-8.315-7.989-13.327-12.98-14.895
					c-4.498-1.414-7.869,0.61-7.901,0.631c-0.117,0.074-0.271,0.037-0.344-0.082c-0.072-0.118-0.036-0.271,0.082-0.344
					c0.145-0.089,3.603-2.161,8.313-0.682c5.137,1.614,9.607,6.719,13.29,15.173c0.055,0.126-0.003,0.273-0.13,0.329
					C384.42,193.361,384.385,193.368,384.352,193.368z"/>
				<path style="fill:#4F2649;" d="M385.758,208.555c-1.2,0-2.146-0.318-2.828-0.955c-1.989-1.855-0.966-5.667-0.922-5.828
					c0.037-0.133,0.172-0.212,0.308-0.175c0.133,0.037,0.211,0.174,0.175,0.308c-0.011,0.037-0.986,3.683,0.781,5.33
					c1.163,1.084,3.271,1.098,6.262,0.042c0.131-0.046,0.272,0.023,0.318,0.153c0.046,0.13-0.023,0.273-0.152,0.319
					C388.176,208.287,386.86,208.555,385.758,208.555z"/>
			</g>
			<g>
				<path d="M158.511,150.304l-9.441-3.672l-3.973,3.814l-0.507-0.197l13.175-12.654l0.441,0.172l1.164,18.23l-0.507-0.197
					L158.511,150.304z M158.476,149.808l-0.722-11.531l-8.323,8.014L158.476,149.808z"/>
			</g>
			<g>
				<path d="M294.04,78.78L299.046,75c1.373-1.036,2.8-1.667,4.278-1.895c1.479-0.227,2.893-0.058,4.238,0.508
					c1.347,0.565,2.496,1.478,3.445,2.737c0.951,1.26,1.514,2.614,1.689,4.064c0.175,1.45-0.05,2.855-0.674,4.215
					c-0.624,1.361-1.622,2.559-2.995,3.595l-5.007,3.779L294.04,78.78z M308.719,87.895c1.322-0.998,2.283-2.143,2.88-3.434
					c0.597-1.292,0.81-2.619,0.642-3.984c-0.17-1.364-0.707-2.645-1.609-3.841c-0.903-1.196-1.987-2.063-3.254-2.601
					c-1.266-0.537-2.601-0.696-4.006-0.475c-1.405,0.221-2.77,0.83-4.092,1.828l-4.592,3.465l9.44,12.507L308.719,87.895z"/>
			</g>
			<g>
				<path d="M388.649,315.699c0.607,1.267,0.621,2.451,0.039,3.554c-0.582,1.103-1.77,2.083-3.56,2.944l-6.338,3.045l-7.176-14.934
					l5.91-2.84c1.564-0.752,2.947-1.018,4.146-0.799c1.201,0.221,2.094,0.942,2.682,2.166c0.451,0.938,0.559,1.827,0.324,2.667
					c-0.236,0.841-0.766,1.589-1.586,2.246C385.757,312.888,387.61,313.538,388.649,315.699z M372.237,310.508l3.238,6.742
					l5.568-2.676c1.438-0.689,2.408-1.511,2.914-2.463c0.504-0.952,0.494-1.975-0.031-3.071c-0.525-1.095-1.32-1.742-2.379-1.942
					s-2.307,0.045-3.742,0.735L372.237,310.508z M388.221,315.905c-0.566-1.18-1.396-1.858-2.486-2.034
					c-1.092-0.176-2.447,0.126-4.07,0.904l-5.994,2.881l3.352,6.977l5.996-2.881C388.274,320.187,389.342,318.238,388.221,315.905z"
					/>
			</g>
			<g>
				<path d="M167.372,418.67c-1.481-0.095-2.831-0.553-4.05-1.377c-1.218-0.824-2.169-1.947-2.853-3.369
					c-0.684-1.422-0.966-2.867-0.848-4.333c0.118-1.466,0.604-2.807,1.455-4.021c0.852-1.214,1.996-2.167,3.434-2.857
					c1.01-0.485,2.028-0.777,3.057-0.878c1.029-0.1,2.006,0.013,2.933,0.338l-0.112,0.421c-1.825-0.593-3.72-0.419-5.683,0.524
					c-1.352,0.649-2.428,1.552-3.23,2.707c-0.801,1.156-1.258,2.43-1.367,3.822c-0.11,1.393,0.152,2.749,0.788,4.072
					c0.636,1.322,1.53,2.376,2.687,3.16c1.155,0.784,2.436,1.225,3.839,1.32c1.402,0.097,2.779-0.181,4.131-0.83
					c1.948-0.936,3.266-2.313,3.95-4.13l0.4,0.176c-0.326,0.927-0.852,1.765-1.575,2.516c-0.726,0.751-1.585,1.366-2.581,1.844
					C170.311,418.465,168.852,418.764,167.372,418.67z"/>
			</g>
			<g>
				<path style="fill:#FFB769;" d="M256.879,83.668c2.882-4.49,4.668-11.117,4.668-15.094c0-6.442-5.222-11.664-11.665-11.664
					c-6.442,0-11.665,5.222-11.665,11.664c0,4.026,2.25,10.769,5.51,15.26L256.879,83.668z"/>
				<path style="fill:#4F2649;" d="M254.913,87.599h-9.826c-1.284,0-2.324-1.041-2.324-2.324l0,0c0-1.284,1.041-2.324,2.324-2.324
					h9.826c1.284,0,2.324,1.041,2.324,2.324l0,0C257.237,86.558,256.197,87.599,254.913,87.599z"/>
				<path style="fill:#4F2649;" d="M253.254,89.923h-6.507c-1.284,0-2.324-1.041-2.324-2.324l0,0c0-1.284,1.041-2.324,2.324-2.324
					h6.507c1.284,0,2.324,1.041,2.324,2.324l0,0C255.578,88.882,254.537,89.923,253.254,89.923z"/>
				<path style="fill:#4F2649;" d="M250.861,92.426h-1.723c-1.284,0-2.324-1.041-2.324-2.324l0,0c0-1.284,1.041-2.324,2.324-2.324
					h1.723c1.284,0,2.324,1.041,2.324,2.324l0,0C253.186,91.386,252.145,92.426,250.861,92.426z"/>
				<path style="fill:#4F2649;" d="M247.344,84.834c-0.029,0-0.059-0.005-0.088-0.016c-0.129-0.049-0.194-0.193-0.146-0.322
					c1.801-4.776,2.16-8.206,1.905-10.626c-0.021,0-0.042,0-0.063,0c-2.792,0-4.37-0.498-4.823-1.519
					c-0.363-0.818,0.062-1.916,1.229-3.174c0.332-0.358,0.801-0.542,1.286-0.525c0.493,0.024,0.947,0.265,1.247,0.66
					c0.6,0.791,1.279,2.08,1.56,4.053c0.6-0.013,1.155-0.049,1.667-0.109c0.299-1.104,0.812-2.22,1.605-3.317
					c0.613-0.849,1.623-0.826,2.302-0.365c0.62,0.421,1.033,1.273,0.476,2.15c-0.655,1.031-1.989,1.694-3.979,1.982
					c-1.291,5.534,2.878,10.658,2.929,10.719c0.088,0.106,0.073,0.264-0.033,0.352c-0.104,0.086-0.263,0.074-0.352-0.033
					c-0.053-0.064-4.289-5.27-3.072-10.973c-0.462,0.049-0.956,0.08-1.481,0.092c0.254,2.497-0.118,5.994-1.934,10.809
					C247.541,84.773,247.445,84.834,247.344,84.834z M246.564,69.15c-0.318,0-0.621,0.132-0.839,0.367
					c-0.582,0.628-1.504,1.806-1.138,2.631c0.249,0.562,1.214,1.221,4.365,1.222c-0.271-1.827-0.9-3.021-1.459-3.756
					c-0.21-0.277-0.529-0.446-0.873-0.463C246.601,69.15,246.582,69.15,246.564,69.15z M254.019,69.756
					c-0.319,0-0.644,0.135-0.891,0.476c-0.705,0.974-1.177,1.966-1.468,2.949c1.719-0.276,2.864-0.854,3.419-1.726
					c0.381-0.598,0.106-1.168-0.335-1.467C254.537,69.846,254.28,69.756,254.019,69.756z"/>
			</g>
		</g>
		<g>
			<g>
				
					<rect x="129.611" y="234.19" transform="matrix(6.123234e-17 -1 1 6.123234e-17 -85.2397 399.4106)" style="fill:#FF5C5E;" width="54.95" height="16.271"/>
				<rect x="97.633" y="261.737" style="fill:#B55757;" width="51.317" height="8.135"/>
				<rect x="107.463" y="245.467" style="fill:#A475DB;" width="41.487" height="8.135"/>
				<rect x="102.548" y="233.453" style="fill:#6E89EA;" width="41.487" height="12.014"/>
				<rect x="90.991" y="253.602" style="fill:#FFB769;" width="54.95" height="8.135"/>
				<path style="fill:#4F2649;" d="M162.798,218.662v24.427c0,0.09-0.073,0.163-0.163,0.163h-11.1c-0.09,0-0.163-0.073-0.163-0.163
					v-24.427c0-0.09,0.073-0.163,0.163-0.163h11.1C162.725,218.499,162.798,218.572,162.798,218.662z M162.473,242.926v-24.102
					h-10.775v24.102H162.473z"/>
				<path style="fill:#4F2649;" d="M143.281,255.672H93.652c-0.09,0-0.163-0.073-0.163-0.163c0-0.09,0.073-0.163,0.163-0.163h49.629
					c0.09,0,0.163,0.073,0.163,0.163C143.443,255.599,143.371,255.672,143.281,255.672z"/>
				<path style="fill:#4F2649;" d="M162.798,256.818c0,0.09-0.073,0.163-0.163,0.163h-11.1c-0.09,0-0.163-0.073-0.163-0.163
					c0-0.09,0.073-0.163,0.163-0.163h11.1C162.725,256.656,162.798,256.728,162.798,256.818z"/>
				<path style="fill:#4F2649;" d="M162.798,264.497c0,0.09-0.073,0.163-0.163,0.163h-11.1c-0.09,0-0.163-0.073-0.163-0.163
					s0.073-0.163,0.163-0.163h11.1C162.725,264.335,162.798,264.407,162.798,264.497z"/>
				<path style="fill:#4F2649;" d="M162.798,253.81c0,0.09-0.073,0.163-0.163,0.163h-11.1c-0.09,0-0.163-0.073-0.163-0.163
					c0-0.09,0.073-0.163,0.163-0.163h11.1C162.725,253.648,162.798,253.72,162.798,253.81z"/>
				<path style="fill:#4F2649;" d="M162.798,250.427c0,0.09-0.073,0.163-0.163,0.163h-11.1c-0.09,0-0.163-0.073-0.163-0.163
					s0.073-0.163,0.163-0.163h11.1C162.725,250.264,162.798,250.337,162.798,250.427z"/>
			</g>
			<g>
				<polygon style="fill:#B55757;" points="338.417,269.873 320.99,269.832 319.044,233.649 340.533,233.699 				"/>
				<polygon style="fill:#FF5C5E;" points="340.045,242.039 319.477,241.707 320.614,262.839 338.824,262.914 				"/>
				<polygon style="fill:#4F2649;" points="342.207,233.797 317.369,233.816 317.825,228.871 341.91,228.853 				"/>
				<polygon style="fill:#4F2649;" points="339.06,231.278 320.35,231.292 321.185,226.347 338.264,226.334 				"/>
				<path style="fill:#FFDEF2;" d="M333.784,251.761c0,2.824-1.826,5.114-4.078,5.114c-2.253,0-4.078-2.29-4.078-5.114
					c0-2.824,1.826-5.114,4.078-5.114C331.958,246.647,333.784,248.937,333.784,251.761z"/>
			</g>
			<g>
				<rect x="354.632" y="265.805" style="fill:#4F2649;" width="55.674" height="3.995"/>
				<rect x="365.135" y="249.67" style="fill:#A475DB;" width="41.487" height="8.135"/>
				<rect x="348.664" y="257.805" style="fill:#FFB769;" width="54.95" height="8.135"/>
				<path style="fill:#4F2649;" d="M400.953,259.875h-49.629c-0.09,0-0.163-0.073-0.163-0.163c0-0.09,0.073-0.163,0.163-0.163
					h49.629c0.09,0,0.163,0.073,0.163,0.163C401.116,259.802,401.043,259.875,400.953,259.875z"/>
			</g>
		</g>
		<g>
			<path style="fill:#A475DB;" d="M250,107.995c-22.535,1.365-27.082,15.056-30.425,29.184
				c-5.744,24.277-11.404,15.43-11.404,28.981H251.5h40.329c0-16.332-8.753-15.09-11.404-28.981
				C276.616,117.219,269.577,109.545,250,107.995"/>
			<path style="fill:#FF94A1;" d="M250,117.183h0.42c8.071,0,14.396,3.256,16.83,10.545c0,0,1.131,3.46,1.755,7.31
				c0,0,4.668-3.549,5.798,4.606c1.214,8.757-5.183,7.821-5.183,7.821s0.183,4.204-0.999,6.118
				c-1.755,2.842-8.511,6.854-8.511,6.854s-1.268,12.512,7.428,16.425c1.612,0.725,3.566,1.155,5.934,1.155
				c0,0,2.311,7.92-23.473,7.92c-25.784,0-23.473-7.92-23.473-7.92c2.368,0,4.322-0.43,5.934-1.155
				c8.696-3.913,7.428-16.425,7.428-16.425s-6.756-4.011-8.511-6.854c-1.182-1.914-0.999-6.118-0.999-6.118
				s-6.396,0.936-5.183-7.821c1.13-8.155,5.798-4.606,5.798-4.606c0.624-3.85,1.755-7.31,1.755-7.31
				c2.434-7.289,8.759-10.545,16.83-10.545H250z"/>
			<path style="fill:#A475DB;" d="M249.162,124.154c0,0,3.149,10.082,19.843,10.884l0,0c0,0,1.154-22.32-18.064-19.585
				c-19.218,2.734-20.198,11.826-19.946,19.585l0,0C230.995,135.038,246.04,136.232,249.162,124.154"/>
			<path style="fill:#4F2649;" d="M226.227,140.763c-0.105,0-0.196-0.078-0.209-0.185c-0.017-0.142-0.146-3.467,1.606-4.604
				c1.757-1.139,2.327,0.34,2.372,0.385c0.016,0.015,0.128,0.193,0.066,0.291c-0.062,0.098-0.203,0.144-0.291,0.066
				c-0.08-0.071-0.39-1.378-1.917-0.388c-1.532,0.994-1.421,4.167-1.417,4.199c0.014,0.116-0.068,0.221-0.184,0.235
				C226.244,140.762,226.235,140.763,226.227,140.763z"/>
			<path style="fill:#4F2649;" d="M229.462,143.905c-0.054-0.004-0.106-0.029-0.144-0.074c-0.076-0.089-0.065-0.222,0.024-0.297
				c0.058-0.05,0.091-0.095,0.091-0.126c0-0.105-0.023-0.309-0.211-0.468c-0.317-0.269-0.677-0.574-0.803-1.001
				c-0.195-0.662,0.528-0.974,1.109-1.225c0.327-0.142,0.523-0.312,0.562-0.478c0.126-0.538-0.219-1.249-0.223-1.256
				c-0.051-0.105-0.009-0.231,0.095-0.283c0.104-0.052,0.23-0.009,0.283,0.095c0.017,0.034,0.417,0.852,0.256,1.54
				c-0.087,0.372-0.327,0.562-0.805,0.769c-0.58,0.251-0.955,0.436-0.872,0.718c0.09,0.307,0.399,0.568,0.671,0.799
				c0.306,0.26,0.36,0.489,0.36,0.79c0,0.162-0.08,0.312-0.24,0.448C229.572,143.893,229.516,143.909,229.462,143.905z"/>
			<path style="fill:#4F2649;" d="M273.331,140.763c0.105,0,0.196-0.078,0.209-0.185c0.017-0.142,0.146-3.467-1.606-4.604
				c-1.757-1.139-2.327,0.34-2.372,0.385c-0.016,0.015-0.128,0.193-0.065,0.291c0.062,0.098,0.203,0.144,0.291,0.066
				c0.08-0.071,0.39-1.378,1.917-0.388c1.531,0.994,1.421,4.167,1.417,4.199c-0.014,0.116,0.068,0.221,0.184,0.235
				C273.314,140.762,273.322,140.763,273.331,140.763z"/>
			<path style="fill:#4F2649;" d="M270.096,143.905c0.054-0.004,0.106-0.029,0.144-0.074c0.076-0.089,0.065-0.222-0.024-0.297
				c-0.058-0.05-0.091-0.095-0.091-0.126c0-0.105,0.023-0.309,0.211-0.468c0.318-0.269,0.677-0.574,0.803-1.001
				c0.195-0.662-0.528-0.974-1.109-1.225c-0.327-0.142-0.523-0.312-0.562-0.478c-0.126-0.538,0.219-1.249,0.223-1.256
				c0.052-0.105,0.009-0.231-0.095-0.283c-0.104-0.052-0.23-0.009-0.283,0.095c-0.017,0.034-0.417,0.852-0.256,1.54
				c0.087,0.372,0.328,0.562,0.805,0.769c0.58,0.251,0.955,0.436,0.872,0.718c-0.09,0.307-0.399,0.568-0.672,0.799
				c-0.306,0.26-0.36,0.489-0.36,0.79c0,0.162,0.081,0.312,0.24,0.448C269.986,143.893,270.042,143.909,270.096,143.905z"/>
			<path style="fill:#4F2649;" d="M254.42,150.768c-0.076,0-0.151-0.035-0.2-0.1c-0.083-0.11-0.061-0.267,0.049-0.35
				c0.007-0.005,0.64-0.49,0.748-1.284c0.076-0.553-0.115-1.135-0.569-1.73c-0.083-0.109-0.063-0.267,0.048-0.35
				c0.108-0.084,0.266-0.063,0.351,0.047c0.539,0.707,0.763,1.416,0.665,2.108c-0.141,1.002-0.91,1.585-0.942,1.61
				C254.523,150.752,254.471,150.768,254.42,150.768z"/>
			<path style="fill:#4F2649;" d="M247.038,150.768c-0.052,0-0.104-0.016-0.149-0.049c-0.033-0.025-0.802-0.608-0.943-1.61
				c-0.097-0.692,0.126-1.401,0.666-2.108c0.084-0.111,0.242-0.131,0.35-0.047c0.11,0.083,0.131,0.24,0.047,0.35
				c-0.453,0.595-0.645,1.177-0.569,1.73c0.109,0.794,0.742,1.28,0.748,1.285c0.11,0.083,0.132,0.24,0.05,0.35
				C247.189,150.734,247.114,150.768,247.038,150.768z"/>
			<path style="fill:#4F2649;" d="M249.882,150.273c-0.071,0-0.142-0.03-0.191-0.089c-0.163-0.195-0.333-0.293-0.503-0.293
				c-0.001,0-0.001,0-0.001,0c-0.301,0-0.551,0.29-0.553,0.293c-0.088,0.106-0.246,0.121-0.352,0.032
				c-0.106-0.088-0.12-0.246-0.032-0.352c0.016-0.019,0.399-0.472,0.936-0.473c0,0,0.001,0,0.001,0c0.325,0,0.623,0.159,0.885,0.472
				c0.089,0.106,0.075,0.264-0.031,0.352C249.996,150.254,249.939,150.273,249.882,150.273z"/>
			<path style="fill:#4F2649;" d="M253.032,150.273c-0.071,0-0.142-0.03-0.191-0.089l0,0c-0.002-0.003-0.253-0.294-0.555-0.294
				h-0.001c-0.17,0-0.339,0.099-0.502,0.293c-0.089,0.107-0.246,0.12-0.353,0.031c-0.105-0.089-0.119-0.246-0.03-0.352
				c0.264-0.314,0.58-0.484,0.888-0.472c0.537,0.001,0.92,0.454,0.937,0.473c0.088,0.106,0.074,0.264-0.032,0.352
				C253.145,150.254,253.088,150.273,253.032,150.273z"/>
			<g>
				<path style="fill:#FFFFFF;" d="M235.009,140.967c0,0,6.215-6.313,11.504,0.784c0,0-1.909,3.274-5.752,3.436
					C236.918,145.348,235.009,140.967,235.009,140.967z"/>
				<g>
					<g>
						<defs>
							<path id="SVGID_1_" d="M235.009,140.967c0,0,6.215-6.313,11.504,0.784c0,0-1.909,3.274-5.752,3.436
								C236.918,145.348,235.009,140.967,235.009,140.967z"/>
						</defs>
						<clipPath id="SVGID_00000145059949409045902410000004099586793012253622_">
							<use xlink:href="#SVGID_1_"  style="overflow:visible;"/>
						</clipPath>
						<path style="clip-path:url(#SVGID_00000145059949409045902410000004099586793012253622_);fill:#4F2649;" d="M244.808,143.233
							c0,2.029-1.645,3.673-3.673,3.673s-3.674-1.645-3.674-3.673c0-2.029,1.645-3.674,3.674-3.674S244.808,141.204,244.808,143.233
							z"/>
					</g>
				</g>
			</g>
			<g>
				<path style="fill:#FFFFFF;" d="M266.739,140.967c0,0-6.215-6.313-11.504,0.784c0,0,1.909,3.274,5.752,3.436
					C264.83,145.348,266.739,140.967,266.739,140.967z"/>
				<g>
					<g>
						<defs>
							<path id="SVGID_00000010288582538780975400000002668924073789604262_" d="M266.739,140.967c0,0-6.215-6.313-11.504,0.784
								c0,0,1.909,3.274,5.752,3.436C264.83,145.348,266.739,140.967,266.739,140.967z"/>
						</defs>
						<use xlink:href="#SVGID_00000010288582538780975400000002668924073789604262_"  style="overflow:visible;fill:#FFFFFF;"/>
						<clipPath id="SVGID_00000096053060695271563210000006948676651017921448_">
							<use xlink:href="#SVGID_00000010288582538780975400000002668924073789604262_"  style="overflow:visible;"/>
						</clipPath>
						<path style="clip-path:url(#SVGID_00000096053060695271563210000006948676651017921448_);fill:#4F2649;" d="M256.94,143.233
							c0,2.029,1.645,3.673,3.673,3.673c2.029,0,3.673-1.645,3.673-3.673c0-2.029-1.645-3.674-3.673-3.674
							C258.585,139.56,256.94,141.204,256.94,143.233z"/>
					</g>
				</g>
			</g>
			<path style="fill:#B55757;" d="M250.661,158.88c5.478,0,7.805-5.546,7.805-5.546c-6.626-1.664-7.805,0.611-7.805,0.611
				s-1.179-2.275-7.805-0.611C242.856,153.334,245.184,158.88,250.661,158.88z"/>
			<path style="fill:#4F2649;" d="M264.595,137.426c-0.414-0.273-0.94-0.542-1.441-0.702c-0.512-0.163-1.028-0.281-1.554-0.302
				c-0.525-0.024-1.047-0.009-1.572,0.087c-0.525,0.072-1.044,0.226-1.576,0.361l-0.077,0.02c-0.545,0.139-1.099-0.19-1.238-0.735
				c-0.131-0.514,0.159-1.038,0.649-1.212c0.32-0.113,0.645-0.213,0.974-0.304c0.342-0.055,0.673-0.143,1.022-0.164
				c0.691-0.074,1.402-0.016,2.09,0.108c0.686,0.162,1.352,0.408,1.944,0.775c0.598,0.372,1.106,0.798,1.537,1.414
				c0.158,0.226,0.103,0.537-0.123,0.694c-0.172,0.12-0.394,0.117-0.559,0.008L264.595,137.426z"/>
			<path style="fill:#4F2649;" d="M235.969,136.773c0.431-0.617,0.939-1.042,1.537-1.414c0.591-0.368,1.258-0.614,1.944-0.775
				c0.689-0.125,1.4-0.183,2.09-0.108c0.35,0.021,0.681,0.109,1.022,0.164c0.329,0.091,0.654,0.191,0.974,0.304
				c0.53,0.187,0.809,0.768,0.622,1.298c-0.176,0.5-0.703,0.776-1.207,0.65l-0.081-0.021c-0.532-0.135-1.051-0.289-1.576-0.361
				c-0.524-0.096-1.047-0.111-1.572-0.087c-0.526,0.021-1.042,0.139-1.554,0.302c-0.502,0.16-1.028,0.429-1.442,0.702l-0.074,0.049
				c-0.23,0.152-0.539,0.089-0.691-0.141C235.846,137.158,235.856,136.936,235.969,136.773z"/>
			<path style="fill:#4F2649;" d="M260.111,160.436c0,0-5.501,3.431-9.17,4.095c0,0,5.535,7.951,14.033,10.718
				C264.974,175.249,259.912,171.621,260.111,160.436z"/>
			<path style="fill:#4F2649;" d="M242.856,162.654c-0.04,0-0.081-0.01-0.119-0.03c-5.419-2.917-7.709-5.044-7.804-5.133
				c-0.101-0.094-0.105-0.252-0.011-0.353c0.095-0.102,0.253-0.105,0.353-0.011c0.023,0.021,2.346,2.175,7.699,5.057
				c0.122,0.065,0.167,0.217,0.102,0.339C243.031,162.606,242.945,162.654,242.856,162.654z"/>
			<path style="fill:#4F2649;" d="M282.106,213.389v14.076l-13.263-18.692l-17.903,11.024
				c19.096,42.936,28.704,50.076,45.976,50.076c17.272,0,17.454-64.894,8.477-77.952c-8.978-13.059-32.537-13.904-32.537-13.904
				s-22.343-2.429-46.329,0c0,0-23.56,0.846-32.537,13.904c-8.978,13.058-8.795,77.952,8.476,77.952
				c17.272,0,26.88-7.14,45.976-50.076l-17.903-11.024l-13.263,18.692v-14.076"/>
			<path style="fill:#FFDEF2;" d="M249.956,183.706c-17.328,0-20.215-5.816-20.33-6.063c-0.058-0.125-0.003-0.273,0.122-0.331
				c0.124-0.057,0.273-0.003,0.332,0.12c0.007,0.014,0.712,1.453,3.493,2.877c2.581,1.322,7.518,2.897,16.383,2.897
				c8.723,0,13.522-1.574,16.014-2.894c2.682-1.421,3.324-2.857,3.33-2.872c0.056-0.127,0.201-0.187,0.328-0.132
				c0.126,0.054,0.186,0.199,0.133,0.326C269.657,177.883,267.021,183.706,249.956,183.706z"/>
			<g>
				<path style="fill:#B55757;" d="M249.584,189.426c0,0,12.808-3.569,26.063-0.508c1.093,0.253,1.773,1.35,1.502,2.439
					l-7.619,30.659l-19.545,3.17l-20.132-3.14l-7.788-30.552c-0.293-1.149,0.436-2.309,1.601-2.529
					C227.973,188.15,238.275,186.777,249.584,189.426z"/>
				<path style="fill:#FFDEF2;" d="M275.887,188.977c0,0-9.972-9.298-26.195-1.3c0,0-15.989-7.817-26.432,1.366
					c0,0,13.335-2.2,26.324,0.382C249.584,189.426,264.403,186.664,275.887,188.977z"/>
				<path style="fill:#4F2649;" d="M247.684,223.655c-0.135,0-0.246-0.107-0.25-0.243l-0.914-31.587
					c-0.004-0.138,0.105-0.253,0.243-0.257c0.125-0.002,0.253,0.105,0.257,0.243l0.914,31.587c0.004,0.138-0.105,0.253-0.243,0.257
					C247.689,223.655,247.686,223.655,247.684,223.655z"/>
				<path style="fill:#4F2649;" d="M252.316,223.655c-0.002,0-0.005,0-0.007,0c-0.139-0.004-0.247-0.119-0.243-0.257l0.914-31.587
					c0.004-0.138,0.107-0.261,0.257-0.243c0.139,0.004,0.247,0.119,0.243,0.257l-0.914,31.587
					C252.562,223.548,252.451,223.655,252.316,223.655z"/>
				<path style="fill:#4F2649;" d="M256.342,194.744c-0.105,0-0.201-0.066-0.237-0.17c-0.044-0.131,0.026-0.272,0.157-0.317
					c8.758-2.962,17.992-1.112,18.085-1.092c0.135,0.028,0.222,0.16,0.194,0.295c-0.027,0.135-0.154,0.224-0.296,0.194
					c-0.092-0.018-9.198-1.84-17.823,1.077C256.396,194.74,256.369,194.744,256.342,194.744z"/>
			</g>
			<path style="fill:#FF94A1;" d="M225.408,224.333c0,0-1.346-11.753,0.569-15.563c2.214-4.405,5.619-1.718,4.191,2.276
				c-0.128,0.359,0.35,0.372,0.575,0.06c0,0,2.647-4.267,5.257-10.529c0.639-1.534,1.898-3.459,3.955-2.855
				c3.068,0.9-2.348,8.925-2.572,9.822l0,0c0,0,3.623-11.7,7.174-9.729c2.432,1.35-2.242,10.994-3.135,12.486l0,0
				c2.249-11.628,5.464-8.548,5.464-8.548c1.536,1.561,0.422,5.275-0.382,6.278l0,0c0.224-0.07,0.588-4.055,2.558-2.318
				c2.357,2.077-1.694,8.818-3.598,12.54c-3.764,7.361-9.947,11.017-9.947,11.017"/>
			<path style="fill:#FFDEF2;" d="M216.227,267.412c-0.082,0-0.163-0.041-0.21-0.115c-0.075-0.116-0.041-0.271,0.075-0.345
				c10.994-7.056,19.089-27.771,20.793-34.518c0.294-1.164-0.276-2.388-1.355-2.911l-10.098-4.901l-10.254,7.329
				c-0.081,0.058-0.189,0.063-0.274,0.011c-0.085-0.052-0.132-0.149-0.119-0.248l2.244-16.607c0.018-0.137,0.142-0.235,0.281-0.214
				c0.137,0.018,0.232,0.144,0.214,0.281l-2.167,16.034l9.904-7.079c0.075-0.053,0.172-0.061,0.255-0.021l10.231,4.965
				c1.291,0.626,1.973,2.092,1.621,3.483c-0.725,2.871-3.002,9.74-6.935,17.265c-3.056,5.848-7.977,13.64-14.073,17.551
				C216.32,267.4,216.273,267.412,216.227,267.412z"/>
			<path style="fill:#FF94A1;" d="M273.954,224.333c0,0,1.346-11.753-0.569-15.563c-2.214-4.405-5.619-1.718-4.191,2.276
				c0.128,0.359-0.448,0.459-0.673,0.147c0,0-2.549-4.353-5.159-10.615c-0.639-1.534-1.898-3.459-3.956-2.855
				c-3.068,0.9,2.348,8.925,2.572,9.822l0,0c0,0-3.623-11.7-7.174-9.729c-2.432,1.35,2.242,10.994,3.135,12.486l0,0
				c-2.249-11.628-5.464-8.548-5.464-8.548c-1.536,1.561-0.422,5.275,0.382,6.278l0,0c-0.225-0.07-0.588-4.055-2.558-2.318
				c-2.357,2.077,1.694,8.818,3.597,12.54c3.764,7.361,9.947,11.017,9.947,11.017"/>
			<path style="fill:#FFDEF2;" d="M283.135,267.412c-0.047,0-0.093-0.013-0.135-0.04c-6.096-3.911-11.018-11.703-14.073-17.551
				c-3.933-7.526-6.209-14.394-6.935-17.265c-0.352-1.393,0.33-2.857,1.621-3.483l10.232-4.965c0.072-0.035,0.154-0.033,0.223,0.003
				l7.408,3.778l-1.846-13.654c-0.018-0.137,0.078-0.263,0.215-0.281c0.135-0.021,0.263,0.078,0.281,0.214l1.909,14.127
				c0.012,0.092-0.027,0.184-0.104,0.238c-0.075,0.055-0.177,0.062-0.258,0.018l-7.723-3.938l-10.119,4.911
				c-1.079,0.523-1.648,1.747-1.355,2.911c1.705,6.747,9.799,27.461,20.793,34.518c0.116,0.074,0.15,0.228,0.075,0.345
				C283.298,267.371,283.217,267.412,283.135,267.412z"/>
			<path style="fill:#FFDEF2;" d="M200.462,241.649c-0.081,0-0.16-0.04-0.208-0.112c-0.076-0.115-0.045-0.27,0.07-0.347
				l14.571-9.651c0.115-0.075,0.27-0.045,0.347,0.07c0.076,0.115,0.045,0.271-0.07,0.347l-14.571,9.651
				C200.558,241.636,200.51,241.649,200.462,241.649z"/>
			<path style="fill:#FFDEF2;" d="M291.27,233.218c-0.037,0-0.074-0.008-0.11-0.025l-9.482-4.641
				c-0.124-0.061-0.175-0.21-0.114-0.334c0.061-0.124,0.211-0.173,0.335-0.115l9.482,4.641c0.124,0.061,0.175,0.21,0.114,0.334
				C291.452,233.167,291.362,233.218,291.27,233.218z"/>
			<path style="fill:#B55757;" d="M273.297,206.851l-1.307,5.01c0,0-1.735,2.668-3.468-0.669
				C266.407,204.49,273.297,206.851,273.297,206.851z"/>
			<path style="fill:#B55757;" d="M225.972,206.916l1.367,4.512c0,0,2.228,2.052,3.961-1.284
				C230.688,203.794,225.972,206.916,225.972,206.916z"/>
			<path style="fill:#4F2649;" d="M263.942,212.125c-0.078,0-0.156-0.037-0.205-0.106c-3.01-4.293-5.421-11.996-5.444-12.073
				c-0.041-0.132,0.032-0.272,0.164-0.313c0.134-0.04,0.272,0.033,0.313,0.165c0.024,0.077,2.413,7.706,5.378,11.934
				c0.079,0.113,0.052,0.269-0.061,0.348C264.042,212.11,263.992,212.125,263.942,212.125z"/>
			<path style="fill:#4F2649;" d="M259.408,213.121c-0.082,0-0.163-0.041-0.211-0.116c-2.673-4.188-4.981-11.145-5.003-11.214
				c-0.043-0.131,0.028-0.272,0.159-0.315c0.126-0.045,0.272,0.027,0.315,0.159c0.022,0.069,2.311,6.967,4.95,11.102
				c0.074,0.116,0.04,0.27-0.076,0.345C259.501,213.108,259.454,213.121,259.408,213.121z"/>
			<path style="fill:#4F2649;" d="M255.825,216.156c-0.089,0-0.176-0.048-0.221-0.132c-2.281-4.286-3.939-10.261-3.956-10.32
				c-0.036-0.133,0.042-0.271,0.175-0.308c0.137-0.036,0.271,0.043,0.308,0.175c0.017,0.06,1.66,5.982,3.915,10.218
				c0.064,0.122,0.019,0.273-0.104,0.338C255.905,216.146,255.865,216.156,255.825,216.156z"/>
			<path style="fill:#4F2649;" d="M242.389,216.156c-0.045,0-0.09-0.012-0.131-0.037c-0.118-0.073-0.154-0.227-0.081-0.344
				c1.873-3.03,4.99-9.971,5.021-10.04c0.057-0.127,0.205-0.184,0.33-0.126c0.126,0.056,0.183,0.204,0.126,0.33
				c-0.031,0.07-3.161,7.041-5.051,10.099C242.555,216.114,242.473,216.156,242.389,216.156z"/>
			<path style="fill:#4F2649;" d="M239.087,213.121c-0.047,0-0.095-0.013-0.138-0.041c-0.115-0.076-0.147-0.231-0.071-0.346
				c3.142-4.752,5.773-10.959,5.799-11.021c0.055-0.127,0.203-0.185,0.328-0.133c0.128,0.054,0.187,0.2,0.133,0.328
				c-0.026,0.063-2.676,6.312-5.843,11.102C239.247,213.081,239.168,213.121,239.087,213.121z"/>
			<path style="fill:#4F2649;" d="M234.664,211.121c-0.05,0-0.1-0.015-0.143-0.045c-0.113-0.079-0.141-0.235-0.062-0.348
				c3.802-5.451,6.12-10.903,6.143-10.957c0.054-0.128,0.201-0.186,0.328-0.133c0.128,0.054,0.187,0.201,0.133,0.328
				c-0.023,0.055-2.36,5.553-6.194,11.049C234.82,211.084,234.742,211.121,234.664,211.121z"/>
		</g>
	</g>
</g>
</svg>
